<svg width="1600" height="1523" viewBox="0 0 1600 1523" fill="none" xmlns="http://www.w3.org/2000/svg">
<path d="M97 0L97.0001 1399" stroke="#F5F2EF"/>
<path d="M175 1L175 1400" stroke="#F5F2EF"/>
<path d="M253 2L253 1401" stroke="#F5F2EF"/>
<path d="M331 3L331 1402" stroke="#F5F2EF"/>
<path d="M409 4L409 1403" stroke="#F5F2EF"/>
<path d="M487 5L487 1404" stroke="#F5F2EF"/>
<path d="M565 6L565 1405" stroke="#F5F2EF"/>
<path d="M643 7L643 1406" stroke="#F5F2EF"/>
<path d="M721 8L721 1407" stroke="#F5F2EF"/>
<path d="M799 9L799 1408" stroke="#F5F2EF"/>
<path d="M877 10L877 1409" stroke="#F5F2EF"/>
<path d="M955 11L955 1410" stroke="#F5F2EF"/>
<path d="M1033 12L1033 1411" stroke="#F5F2EF"/>
<path d="M1111 13L1111 1412" stroke="#F5F2EF"/>
<path d="M1189 14L1189 1413" stroke="#F5F2EF"/>
<path d="M1267 15L1267 1414" stroke="#F5F2EF"/>
<path d="M1345 16L1345 1415" stroke="#F5F2EF"/>
<path d="M1423 17L1423 1416" stroke="#F5F2EF"/>
<path d="M1501 18L1501 1417" stroke="#F5F2EF"/>
<path d="M1579 19L1579 1418" stroke="#F5F2EF"/>
<path d="M0 1522L1578.56 1522" stroke="#F5F2EF"/>
<path d="M1.12842 1444L1579.69 1444" stroke="#F5F2EF"/>
<path d="M2.25684 1366L1580.82 1366" stroke="#F5F2EF"/>
<path d="M3.38525 1288L1581.95 1288" stroke="#F5F2EF"/>
<path d="M4.51318 1210L1583.07 1210" stroke="#F5F2EF"/>
<path d="M5.6416 1132L1584.2 1132" stroke="#F5F2EF"/>
<path d="M6.77002 1054L1585.33 1054" stroke="#F5F2EF"/>
<path d="M7.89844 976L1586.46 976" stroke="#F5F2EF"/>
<path d="M9.02686 898L1587.59 898" stroke="#F5F2EF"/>
<path d="M10.1553 820L1588.72 820" stroke="#F5F2EF"/>
<path d="M11.2832 742L1589.84 742" stroke="#F5F2EF"/>
<path d="M12.4116 664L1590.97 664" stroke="#F5F2EF"/>
<path d="M13.54 586L1592.1 586" stroke="#F5F2EF"/>
<path d="M14.6685 508L1593.23 508" stroke="#F5F2EF"/>
<path d="M15.7969 430L1594.36 430" stroke="#F5F2EF"/>
<path d="M16.9253 352L1595.49 352" stroke="#F5F2EF"/>
<path d="M18.0537 274L1596.61 274" stroke="#F5F2EF"/>
<path d="M19.1816 196L1597.74 196" stroke="#F5F2EF"/>
<path d="M20.3101 118L1598.87 118" stroke="#F5F2EF"/>
<path d="M21.4385 40L1600 39.9999" stroke="#F5F2EF"/>
</svg>
