<svg width="348" height="195" viewBox="0 0 348 195" fill="none" xmlns="http://www.w3.org/2000/svg">
<g clip-path="url(#clip0_251_14354)">
<rect width="348" height="195" rx="16" fill="#B8BFCC"/>
<mask id="mask0_251_14354" style="mask-type:alpha" maskUnits="userSpaceOnUse" x="-252" y="0" width="852" height="197">
<rect x="-252" width="851.21" height="197" fill="#2546F5"/>
</mask>
<g mask="url(#mask0_251_14354)">
<rect x="-252" width="851.21" height="197" fill="black"/>
<ellipse cx="169.664" cy="98.5002" rx="152.565" ry="132.803" fill="url(#paint0_radial_251_14354)" fill-opacity="0.5"/>
<ellipse cx="170" cy="98.4998" rx="228" ry="198.515" fill="url(#paint1_radial_251_14354)" fill-opacity="0.8"/>
</g>
<path d="M180.6 88.1429H172.35C169.616 88.1429 167.4 90.3495 167.4 93.0714C167.4 95.7934 169.616 98 172.35 98H175.65C178.384 98 180.6 100.207 180.6 102.929C180.6 105.651 178.384 107.857 175.65 107.857H167.4M174 84.8571V88.1429M174 107.857V111.143M193.8 98H193.833M154.2 98H154.233M141 85.5143L141 110.486C141 114.166 141 116.006 141.719 117.412C142.352 118.648 143.362 119.654 144.604 120.284C146.015 121 147.864 121 151.56 121L196.44 121C200.136 121 201.985 121 203.396 120.284C204.638 119.654 205.648 118.648 206.281 117.412C207 116.006 207 114.166 207 110.486V85.5143C207 81.8339 207 79.9938 206.281 78.5881C205.648 77.3516 204.638 76.3463 203.396 75.7162C201.985 75 200.136 75 196.44 75L151.56 75C147.864 75 146.015 75 144.604 75.7162C143.362 76.3463 142.352 77.3516 141.719 78.5881C141 79.9938 141 81.8339 141 85.5143ZM195.45 98C195.45 98.9073 194.711 99.6429 193.8 99.6429C192.889 99.6429 192.15 98.9073 192.15 98C192.15 97.0927 192.889 96.3571 193.8 96.3571C194.711 96.3571 195.45 97.0927 195.45 98ZM155.85 98C155.85 98.9073 155.111 99.6429 154.2 99.6429C153.289 99.6429 152.55 98.9073 152.55 98C152.55 97.0927 153.289 96.3571 154.2 96.3571C155.111 96.3571 155.85 97.0927 155.85 98Z" stroke="white" stroke-width="3" stroke-linecap="round" stroke-linejoin="round"/>
</g>
<defs>
<radialGradient id="paint0_radial_251_14354" cx="0" cy="0" r="1" gradientUnits="userSpaceOnUse" gradientTransform="translate(169.664 98.5002) rotate(-13.4833) scale(225.866 200.028)">
<stop stop-color="#61FFAA"/>
<stop offset="0.390625" stop-color="#4EF53F" stop-opacity="0.609375"/>
<stop offset="1" stop-color="#86F1A4" stop-opacity="0"/>
</radialGradient>
<radialGradient id="paint1_radial_251_14354" cx="0" cy="0" r="1" gradientUnits="userSpaceOnUse" gradientTransform="translate(170 98.4998) rotate(-13.4864) scale(337.549 298.999)">
<stop stop-color="#556DEB"/>
<stop offset="0.390625" stop-color="#8FAEFF" stop-opacity="0.609375"/>
<stop offset="1" stop-color="#4563FF" stop-opacity="0"/>
</radialGradient>
<clipPath id="clip0_251_14354">
<rect width="348" height="195" rx="16" fill="white"/>
</clipPath>
</defs>
</svg>
