<svg width="535" height="651" viewBox="0 0 535 651" fill="none" xmlns="http://www.w3.org/2000/svg">
<mask id="mask0_419_521" style="mask-type:alpha" maskUnits="userSpaceOnUse" x="0" y="0" width="535" height="651">
<rect width="535" height="651" rx="267.5" fill="#D9D9D9"/>
</mask>
<g mask="url(#mask0_419_521)">
<rect width="535" height="651" rx="267.5" fill="url(#paint0_radial_419_521)"/>
</g>
<rect x="88.5" y="167.5" width="358" height="338" rx="7.5" stroke="white"/>
<g filter="url(#filter0_b_419_521)">
<rect x="107" y="325" width="321" height="75" rx="8" fill="white" fill-opacity="0.3"/>
</g>
<g clip-path="url(#clip0_419_521)">
<path d="M145 381C156.046 381 165 372.046 165 361C165 349.954 156.046 341 145 341C133.954 341 125 349.954 125 361C125 372.046 133.954 381 145 381Z" fill="#EA62E5"/>
</g>
<path d="M149.894 363.674C149.894 364.331 149.733 364.907 149.411 365.402C149.094 365.891 148.631 366.285 148.022 366.582C147.412 366.875 146.68 367.055 145.826 367.122V369.016H144.09V367.101C143.26 367.005 142.53 366.786 141.902 366.446C141.278 366.105 140.793 365.666 140.447 365.128C140.106 364.59 139.936 363.988 139.936 363.321H142.096C142.096 363.748 142.206 364.11 142.427 364.408C142.653 364.706 142.979 364.931 143.406 365.085C143.838 365.238 144.362 365.315 144.976 365.315C145.586 365.315 146.109 365.248 146.546 365.114C146.987 364.979 147.323 364.785 147.554 364.53C147.784 364.271 147.899 363.964 147.899 363.609C147.899 363.316 147.832 363.071 147.698 362.874C147.563 362.678 147.345 362.514 147.042 362.385C146.745 362.255 146.339 362.147 145.826 362.061V363.458H144.09V361.852C143.183 361.727 142.442 361.528 141.866 361.254C141.29 360.976 140.862 360.616 140.584 360.174C140.306 359.733 140.166 359.193 140.166 358.554C140.166 357.921 140.325 357.359 140.642 356.87C140.963 356.38 141.417 355.986 142.002 355.689C142.593 355.386 143.289 355.199 144.09 355.127V353.219H145.826V355.156C146.603 355.257 147.28 355.473 147.856 355.804C148.437 356.135 148.883 356.562 149.195 357.086C149.512 357.604 149.67 358.192 149.67 358.85H147.51C147.51 358.437 147.407 358.089 147.201 357.806C146.994 357.518 146.69 357.299 146.286 357.15C145.888 357.002 145.403 356.927 144.832 356.927C144.28 356.927 143.802 356.992 143.399 357.122C143.001 357.251 142.694 357.438 142.478 357.683C142.266 357.928 142.161 358.218 142.161 358.554C142.161 358.838 142.226 359.075 142.355 359.267C142.485 359.454 142.689 359.61 142.967 359.735C143.25 359.855 143.625 359.949 144.09 360.016V358.634H145.826V360.218C146.757 360.357 147.52 360.573 148.115 360.866C148.715 361.158 149.162 361.538 149.454 362.003C149.747 362.464 149.894 363.021 149.894 363.674Z" fill="white"/>
<path d="M181.162 345.992H182.365V352.22C182.365 353.231 182.579 353.974 183.008 354.448C183.441 354.922 184.118 355.159 185.038 355.159C185.959 355.159 186.633 354.922 187.062 354.448C187.494 353.974 187.711 353.231 187.711 352.22V345.992H188.921V352.22C188.921 353.573 188.597 354.587 187.95 355.262C187.308 355.932 186.337 356.267 185.038 356.267C183.744 356.267 182.773 355.932 182.126 355.262C181.483 354.587 181.162 353.573 181.162 352.22V345.992ZM194.937 350.442C195.588 350.72 196.078 351.09 196.406 351.55C196.739 352.01 196.905 352.555 196.905 353.184C196.905 354.104 196.611 354.847 196.023 355.412C195.44 355.973 194.665 356.253 193.699 356.253C192.911 356.253 192.25 356.052 191.717 355.651C191.184 355.246 190.824 354.672 190.637 353.929L191.717 353.396C191.863 354.002 192.102 354.462 192.435 354.776C192.772 355.086 193.193 355.241 193.699 355.241C194.296 355.241 194.779 355.07 195.148 354.729C195.518 354.382 195.702 353.933 195.702 353.382C195.702 352.935 195.572 352.548 195.312 352.22C195.057 351.887 194.67 351.607 194.15 351.379L192.934 350.859C192.268 350.581 191.771 350.224 191.443 349.786C191.12 349.349 190.958 348.825 190.958 348.214C190.958 347.503 191.222 346.915 191.751 346.45C192.28 345.985 192.954 345.753 193.774 345.753C194.376 345.753 194.896 345.881 195.333 346.136C195.775 346.391 196.119 346.767 196.365 347.264L195.381 347.893C195.158 347.505 194.907 347.218 194.629 347.031C194.351 346.84 194.036 346.744 193.686 346.744C193.239 346.744 192.872 346.881 192.585 347.154C192.302 347.428 192.161 347.776 192.161 348.2C192.161 348.556 192.271 348.863 192.489 349.123C192.708 349.383 193.048 349.613 193.508 349.813L194.937 350.442ZM199.701 354.879H200.46C201.69 354.879 202.543 354.826 203.017 354.722C203.491 354.612 203.885 354.428 204.199 354.168C204.609 353.826 204.922 353.386 205.136 352.849C205.35 352.306 205.457 351.687 205.457 350.989C205.457 350.287 205.35 349.672 205.136 349.144C204.926 348.61 204.614 348.171 204.199 347.824C203.885 347.56 203.484 347.373 202.996 347.264C202.513 347.15 201.668 347.093 200.46 347.093H199.701V354.879ZM198.498 356V345.992H200.419C201.841 345.992 202.841 346.065 203.42 346.211C204.003 346.352 204.514 346.591 204.951 346.929C205.525 347.371 205.961 347.936 206.257 348.624C206.553 349.312 206.701 350.105 206.701 351.003C206.701 351.896 206.553 352.687 206.257 353.375C205.965 354.059 205.53 354.621 204.951 355.063C204.514 355.401 204.015 355.642 203.454 355.788C202.898 355.929 202.03 356 200.85 356H200.419H198.498ZM212.785 356V345.992H214.87C215.604 345.992 216.144 346.031 216.49 346.108C216.841 346.181 217.142 346.309 217.393 346.491C217.712 346.728 217.958 347.034 218.131 347.407C218.309 347.776 218.397 348.182 218.397 348.624C218.397 349.153 218.27 349.595 218.015 349.95C217.764 350.306 217.397 350.554 216.914 350.695C217.507 350.786 217.974 351.053 218.315 351.495C218.662 351.933 218.835 352.486 218.835 353.156C218.835 353.557 218.762 353.94 218.616 354.305C218.47 354.669 218.268 354.981 218.008 355.241C217.725 355.519 217.377 355.715 216.962 355.829C216.547 355.943 215.85 356 214.87 356H212.785ZM213.947 351.311V354.961H214.87C215.504 354.961 215.959 354.936 216.237 354.886C216.52 354.836 216.745 354.749 216.914 354.626C217.119 354.48 217.281 354.277 217.399 354.018C217.518 353.758 217.577 353.471 217.577 353.156C217.577 352.792 217.507 352.475 217.365 352.206C217.224 351.937 217.019 351.728 216.75 351.577C216.59 351.481 216.406 351.413 216.196 351.372C215.987 351.331 215.661 351.311 215.219 351.311H214.87H213.947ZM213.947 347.024V350.374H214.87C215.718 350.374 216.315 350.251 216.661 350.005C217.007 349.759 217.181 349.344 217.181 348.761C217.181 348.118 217.019 347.669 216.695 347.414C216.376 347.154 215.768 347.024 214.87 347.024H213.947ZM225.336 352.931C225.336 352.224 225.142 351.657 224.755 351.229C224.372 350.796 223.871 350.579 223.251 350.579C222.608 350.579 222.107 350.777 221.747 351.174C221.387 351.57 221.207 352.124 221.207 352.835C221.207 353.591 221.387 354.175 221.747 354.585C222.112 354.995 222.627 355.2 223.292 355.2C223.93 355.2 224.429 355.002 224.789 354.605C225.154 354.204 225.336 353.646 225.336 352.931ZM226.375 349.745V356H225.336V354.865C225.085 355.321 224.764 355.67 224.372 355.911C223.985 356.148 223.549 356.267 223.066 356.267C222.169 356.267 221.444 355.959 220.893 355.344C220.346 354.724 220.072 353.906 220.072 352.89C220.072 351.86 220.339 351.042 220.872 350.436C221.405 349.825 222.118 349.52 223.012 349.52C223.536 349.52 223.989 349.638 224.372 349.875C224.759 350.107 225.072 350.456 225.309 350.921V349.745H226.375ZM228.576 356V345.404H229.67V356H228.576ZM236.697 352.931C236.697 352.224 236.504 351.657 236.116 351.229C235.733 350.796 235.232 350.579 234.612 350.579C233.97 350.579 233.468 350.777 233.108 351.174C232.748 351.57 232.568 352.124 232.568 352.835C232.568 353.591 232.748 354.175 233.108 354.585C233.473 354.995 233.988 355.2 234.653 355.2C235.291 355.2 235.79 355.002 236.15 354.605C236.515 354.204 236.697 353.646 236.697 352.931ZM237.736 349.745V356H236.697V354.865C236.447 355.321 236.125 355.67 235.733 355.911C235.346 356.148 234.911 356.267 234.428 356.267C233.53 356.267 232.805 355.959 232.254 355.344C231.707 354.724 231.434 353.906 231.434 352.89C231.434 351.86 231.7 351.042 232.233 350.436C232.767 349.825 233.48 349.52 234.373 349.52C234.897 349.52 235.351 349.638 235.733 349.875C236.121 350.107 236.433 350.456 236.67 350.921V349.745H237.736ZM239.883 356V349.745H240.929V350.709C241.198 350.308 241.521 350.009 241.899 349.813C242.278 349.618 242.715 349.52 243.212 349.52C243.95 349.52 244.527 349.715 244.941 350.107C245.356 350.499 245.563 351.044 245.563 351.741V356H244.47V352.315C244.47 351.682 244.335 351.213 244.066 350.907C243.802 350.597 243.392 350.442 242.836 350.442C242.517 350.442 242.225 350.502 241.961 350.62C241.701 350.734 241.485 350.898 241.312 351.112C241.179 351.276 241.084 351.463 241.024 351.673C240.97 351.882 240.942 352.247 240.942 352.767V356H239.883ZM252.488 354.517V355.761C252.206 355.929 251.887 356.055 251.531 356.137C251.18 356.223 250.8 356.267 250.39 356.267C249.424 356.267 248.644 355.961 248.052 355.351C247.464 354.735 247.17 353.929 247.17 352.931C247.17 351.928 247.475 351.11 248.086 350.477C248.697 349.839 249.478 349.52 250.431 349.52C250.777 349.52 251.114 349.556 251.442 349.629C251.775 349.702 252.087 349.809 252.379 349.95V351.099C252.105 350.921 251.823 350.786 251.531 350.695C251.24 350.6 250.943 350.552 250.643 350.552C249.941 350.552 249.378 350.773 248.954 351.215C248.53 351.652 248.318 352.236 248.318 352.965C248.318 353.607 248.53 354.145 248.954 354.578C249.382 355.011 249.918 355.228 250.561 355.228C250.884 355.228 251.201 355.171 251.511 355.057C251.821 354.943 252.146 354.763 252.488 354.517ZM258.415 352.165C258.379 351.614 258.194 351.19 257.861 350.894C257.533 350.593 257.082 350.442 256.508 350.442C255.988 350.442 255.555 350.6 255.209 350.914C254.863 351.224 254.662 351.641 254.607 352.165H258.415ZM259.563 353.033H254.607V353.129C254.607 353.799 254.799 354.341 255.182 354.756C255.564 355.166 256.063 355.371 256.679 355.371C257.098 355.371 257.476 355.259 257.813 355.036C258.151 354.808 258.449 354.466 258.709 354.011L259.522 354.558C259.208 355.123 258.807 355.549 258.319 355.836C257.832 356.123 257.267 356.267 256.624 356.267C255.672 356.267 254.901 355.952 254.313 355.323C253.726 354.694 253.432 353.869 253.432 352.849C253.432 351.869 253.723 351.067 254.307 350.442C254.89 349.818 255.64 349.506 256.556 349.506C257.481 349.506 258.212 349.802 258.75 350.395C259.292 350.987 259.563 351.796 259.563 352.821V353.033Z" fill="white"/>
<g filter="url(#filter1_b_419_521)">
<rect x="107" y="409" width="321" height="75" rx="8" fill="white" fill-opacity="0.3"/>
</g>
<path d="M89 268.5H446.5" stroke="#E4E4E0"/>
<path d="M109.953 204V195.127H107.123V193.992H113.973V195.127H111.156V204H109.953ZM114.15 200.89C114.15 201.55 114.371 202.111 114.813 202.571C115.256 203.027 115.791 203.255 116.42 203.255C117.044 203.255 117.575 203.027 118.013 202.571C118.45 202.111 118.669 201.55 118.669 200.89C118.669 200.229 118.45 199.671 118.013 199.215C117.575 198.755 117.044 198.524 116.42 198.524C115.786 198.524 115.249 198.755 114.807 199.215C114.369 199.671 114.15 200.229 114.15 200.89ZM113.016 200.89C113.016 200.429 113.1 199.996 113.269 199.591C113.437 199.181 113.683 198.816 114.007 198.497C114.33 198.178 114.697 197.937 115.107 197.772C115.518 197.604 115.955 197.52 116.42 197.52C116.876 197.52 117.306 197.604 117.712 197.772C118.122 197.941 118.493 198.187 118.826 198.511C119.15 198.825 119.396 199.188 119.564 199.598C119.733 200.003 119.817 200.434 119.817 200.89C119.817 201.345 119.733 201.776 119.564 202.182C119.396 202.583 119.15 202.94 118.826 203.255C118.493 203.583 118.12 203.834 117.705 204.007C117.295 204.18 116.867 204.267 116.42 204.267C115.96 204.267 115.522 204.18 115.107 204.007C114.697 203.838 114.33 203.594 114.007 203.275C113.683 202.947 113.437 202.583 113.269 202.182C113.1 201.781 113.016 201.35 113.016 200.89ZM121.656 198.627H120.508V197.745H121.656V195.223H122.75V197.745H123.898V198.627H122.75V204H121.656V198.627ZM129.9 200.931C129.9 200.224 129.707 199.657 129.319 199.229C128.937 198.796 128.435 198.579 127.815 198.579C127.173 198.579 126.672 198.777 126.312 199.174C125.951 199.57 125.771 200.124 125.771 200.835C125.771 201.591 125.951 202.175 126.312 202.585C126.676 202.995 127.191 203.2 127.856 203.2C128.494 203.2 128.993 203.002 129.354 202.605C129.718 202.204 129.9 201.646 129.9 200.931ZM130.939 197.745V204H129.9V202.865C129.65 203.321 129.328 203.67 128.937 203.911C128.549 204.148 128.114 204.267 127.631 204.267C126.733 204.267 126.008 203.959 125.457 203.344C124.91 202.724 124.637 201.906 124.637 200.89C124.637 199.86 124.903 199.042 125.437 198.436C125.97 197.825 126.683 197.52 127.576 197.52C128.1 197.52 128.554 197.638 128.937 197.875C129.324 198.107 129.636 198.456 129.873 198.921V197.745H130.939ZM133.141 204V193.404H134.234V204H133.141ZM140.715 204V193.992H142.8C143.534 193.992 144.074 194.031 144.42 194.108C144.771 194.181 145.072 194.309 145.322 194.491C145.641 194.728 145.887 195.034 146.061 195.407C146.238 195.776 146.327 196.182 146.327 196.624C146.327 197.153 146.2 197.595 145.944 197.95C145.694 198.306 145.327 198.554 144.844 198.695C145.436 198.786 145.903 199.053 146.245 199.495C146.591 199.933 146.765 200.486 146.765 201.156C146.765 201.557 146.692 201.94 146.546 202.305C146.4 202.669 146.197 202.981 145.938 203.241C145.655 203.519 145.306 203.715 144.892 203.829C144.477 203.943 143.78 204 142.8 204H140.715ZM141.877 199.311V202.961H142.8C143.433 202.961 143.889 202.936 144.167 202.886C144.45 202.836 144.675 202.749 144.844 202.626C145.049 202.48 145.211 202.277 145.329 202.018C145.448 201.758 145.507 201.471 145.507 201.156C145.507 200.792 145.436 200.475 145.295 200.206C145.154 199.937 144.949 199.728 144.68 199.577C144.52 199.481 144.336 199.413 144.126 199.372C143.916 199.331 143.59 199.311 143.148 199.311H142.8H141.877ZM141.877 195.024V198.374H142.8C143.647 198.374 144.244 198.251 144.591 198.005C144.937 197.759 145.11 197.344 145.11 196.761C145.11 196.118 144.949 195.669 144.625 195.414C144.306 195.154 143.698 195.024 142.8 195.024H141.877ZM153.266 200.931C153.266 200.224 153.072 199.657 152.685 199.229C152.302 198.796 151.8 198.579 151.181 198.579C150.538 198.579 150.037 198.777 149.677 199.174C149.317 199.57 149.137 200.124 149.137 200.835C149.137 201.591 149.317 202.175 149.677 202.585C150.041 202.995 150.556 203.2 151.222 203.2C151.86 203.2 152.359 203.002 152.719 202.605C153.083 202.204 153.266 201.646 153.266 200.931ZM154.305 197.745V204H153.266V202.865C153.015 203.321 152.694 203.67 152.302 203.911C151.914 204.148 151.479 204.267 150.996 204.267C150.098 204.267 149.374 203.959 148.822 203.344C148.275 202.724 148.002 201.906 148.002 200.89C148.002 199.86 148.269 199.042 148.802 198.436C149.335 197.825 150.048 197.52 150.941 197.52C151.465 197.52 151.919 197.638 152.302 197.875C152.689 198.107 153.001 198.456 153.238 198.921V197.745H154.305ZM156.506 204V193.404H157.6V204H156.506ZM164.627 200.931C164.627 200.224 164.433 199.657 164.046 199.229C163.663 198.796 163.162 198.579 162.542 198.579C161.899 198.579 161.398 198.777 161.038 199.174C160.678 199.57 160.498 200.124 160.498 200.835C160.498 201.591 160.678 202.175 161.038 202.585C161.403 202.995 161.918 203.2 162.583 203.2C163.221 203.2 163.72 203.002 164.08 202.605C164.445 202.204 164.627 201.646 164.627 200.931ZM165.666 197.745V204H164.627V202.865C164.376 203.321 164.055 203.67 163.663 203.911C163.276 204.148 162.84 204.267 162.357 204.267C161.46 204.267 160.735 203.959 160.184 203.344C159.637 202.724 159.363 201.906 159.363 200.89C159.363 199.86 159.63 199.042 160.163 198.436C160.696 197.825 161.41 197.52 162.303 197.52C162.827 197.52 163.28 197.638 163.663 197.875C164.05 198.107 164.363 198.456 164.6 198.921V197.745H165.666ZM167.812 204V197.745H168.858V198.709C169.127 198.308 169.451 198.009 169.829 197.813C170.207 197.618 170.645 197.52 171.142 197.52C171.88 197.52 172.456 197.715 172.871 198.107C173.286 198.499 173.493 199.044 173.493 199.741V204H172.399V200.315C172.399 199.682 172.265 199.213 171.996 198.907C171.732 198.597 171.322 198.442 170.766 198.442C170.447 198.442 170.155 198.502 169.891 198.62C169.631 198.734 169.414 198.898 169.241 199.112C169.109 199.276 169.013 199.463 168.954 199.673C168.899 199.882 168.872 200.247 168.872 200.767V204H167.812ZM180.418 202.517V203.761C180.135 203.929 179.816 204.055 179.461 204.137C179.11 204.223 178.729 204.267 178.319 204.267C177.353 204.267 176.574 203.961 175.981 203.351C175.394 202.735 175.1 201.929 175.1 200.931C175.1 199.928 175.405 199.11 176.016 198.477C176.626 197.839 177.408 197.52 178.36 197.52C178.707 197.52 179.044 197.556 179.372 197.629C179.705 197.702 180.017 197.809 180.309 197.95V199.099C180.035 198.921 179.753 198.786 179.461 198.695C179.169 198.6 178.873 198.552 178.572 198.552C177.87 198.552 177.308 198.773 176.884 199.215C176.46 199.652 176.248 200.236 176.248 200.965C176.248 201.607 176.46 202.145 176.884 202.578C177.312 203.011 177.848 203.228 178.49 203.228C178.814 203.228 179.131 203.171 179.44 203.057C179.75 202.943 180.076 202.763 180.418 202.517ZM186.345 200.165C186.308 199.614 186.124 199.19 185.791 198.894C185.463 198.593 185.012 198.442 184.438 198.442C183.918 198.442 183.485 198.6 183.139 198.914C182.792 199.224 182.592 199.641 182.537 200.165H186.345ZM187.493 201.033H182.537V201.129C182.537 201.799 182.729 202.341 183.111 202.756C183.494 203.166 183.993 203.371 184.608 203.371C185.028 203.371 185.406 203.259 185.743 203.036C186.08 202.808 186.379 202.466 186.639 202.011L187.452 202.558C187.138 203.123 186.737 203.549 186.249 203.836C185.761 204.123 185.196 204.267 184.554 204.267C183.601 204.267 182.831 203.952 182.243 203.323C181.655 202.694 181.361 201.869 181.361 200.849C181.361 199.869 181.653 199.067 182.236 198.442C182.82 197.818 183.569 197.506 184.485 197.506C185.41 197.506 186.142 197.802 186.68 198.395C187.222 198.987 187.493 199.796 187.493 200.821V201.033Z" fill="#D3D3D3"/>
<path d="M110.006 303.717H113.375V305H107.299L110.439 301.197C110.748 300.818 111.006 300.49 111.213 300.213C111.424 299.936 111.584 299.703 111.693 299.516C111.916 299.148 112.027 298.818 112.027 298.525C112.027 298.104 111.879 297.75 111.582 297.465C111.285 297.18 110.918 297.037 110.48 297.037C109.566 297.037 109.043 297.578 108.91 298.66H107.551C107.77 296.754 108.732 295.801 110.439 295.801C111.264 295.801 111.955 296.062 112.514 296.586C113.076 297.109 113.357 297.758 113.357 298.531C113.357 299.023 113.227 299.506 112.965 299.979C112.832 300.225 112.637 300.518 112.379 300.857C112.125 301.193 111.803 301.592 111.412 302.053L110.006 303.717ZM124.508 302.803H120.635L119.627 305H118.156L122.633 295.385L126.951 305H125.457L124.508 302.803ZM123.951 301.52L122.609 298.443L121.203 301.52H123.951ZM134.352 296.439V298.057C133.562 297.396 132.746 297.066 131.902 297.066C130.973 297.066 130.189 297.4 129.553 298.068C128.912 298.732 128.592 299.545 128.592 300.506C128.592 301.455 128.912 302.256 129.553 302.908C130.193 303.561 130.979 303.887 131.908 303.887C132.389 303.887 132.797 303.809 133.133 303.652C133.32 303.574 133.514 303.469 133.713 303.336C133.916 303.203 134.129 303.043 134.352 302.855V304.502C133.57 304.943 132.75 305.164 131.891 305.164C130.598 305.164 129.494 304.713 128.58 303.811C127.67 302.9 127.215 301.803 127.215 300.518C127.215 299.365 127.596 298.338 128.357 297.436C129.295 296.33 130.508 295.777 131.996 295.777C132.809 295.777 133.594 295.998 134.352 296.439ZM142.766 296.439V298.057C141.977 297.396 141.16 297.066 140.316 297.066C139.387 297.066 138.604 297.4 137.967 298.068C137.326 298.732 137.006 299.545 137.006 300.506C137.006 301.455 137.326 302.256 137.967 302.908C138.607 303.561 139.393 303.887 140.322 303.887C140.803 303.887 141.211 303.809 141.547 303.652C141.734 303.574 141.928 303.469 142.127 303.336C142.33 303.203 142.543 303.043 142.766 302.855V304.502C141.984 304.943 141.164 305.164 140.305 305.164C139.012 305.164 137.908 304.713 136.994 303.811C136.084 302.9 135.629 301.803 135.629 300.518C135.629 299.365 136.01 298.338 136.771 297.436C137.709 296.33 138.922 295.777 140.41 295.777C141.223 295.777 142.008 295.998 142.766 296.439ZM143.984 300.436C143.984 299.162 144.451 298.068 145.385 297.154C146.314 296.24 147.432 295.783 148.736 295.783C150.025 295.783 151.131 296.244 152.053 297.166C152.979 298.088 153.441 299.195 153.441 300.488C153.441 301.789 152.977 302.893 152.047 303.799C151.113 304.709 149.986 305.164 148.666 305.164C147.498 305.164 146.449 304.76 145.52 303.951C144.496 303.057 143.984 301.885 143.984 300.436ZM145.361 300.453C145.361 301.453 145.697 302.275 146.369 302.92C147.037 303.564 147.809 303.887 148.684 303.887C149.633 303.887 150.434 303.559 151.086 302.902C151.738 302.238 152.064 301.43 152.064 300.477C152.064 299.512 151.742 298.703 151.098 298.051C150.457 297.395 149.664 297.066 148.719 297.066C147.777 297.066 146.982 297.395 146.334 298.051C145.686 298.699 145.361 299.5 145.361 300.453ZM156.523 295.953V301.402C156.523 302.18 156.65 302.748 156.904 303.107C157.283 303.627 157.816 303.887 158.504 303.887C159.195 303.887 159.73 303.627 160.109 303.107C160.363 302.76 160.49 302.191 160.49 301.402V295.953H161.855V301.777C161.855 302.73 161.559 303.516 160.965 304.133C160.297 304.82 159.477 305.164 158.504 305.164C157.531 305.164 156.713 304.82 156.049 304.133C155.455 303.516 155.158 302.73 155.158 301.777V295.953H156.523ZM164.029 305V295.338L170.627 302.24V295.953H171.992V305.551L165.395 298.666V305H164.029ZM176.662 297.236V305H175.297V297.236H173.217V295.953H178.736V297.236H176.662ZM185.059 297.301L183.951 297.957C183.744 297.598 183.547 297.363 183.359 297.254C183.164 297.129 182.912 297.066 182.604 297.066C182.225 297.066 181.91 297.174 181.66 297.389C181.41 297.6 181.285 297.865 181.285 298.186C181.285 298.627 181.613 298.982 182.27 299.252L183.172 299.621C183.906 299.918 184.443 300.281 184.783 300.711C185.123 301.137 185.293 301.66 185.293 302.281C185.293 303.113 185.016 303.801 184.461 304.344C183.902 304.891 183.209 305.164 182.381 305.164C181.596 305.164 180.947 304.932 180.436 304.467C179.932 304.002 179.617 303.348 179.492 302.504L180.875 302.199C180.938 302.73 181.047 303.098 181.203 303.301C181.484 303.691 181.895 303.887 182.434 303.887C182.859 303.887 183.213 303.744 183.494 303.459C183.775 303.174 183.916 302.812 183.916 302.375C183.916 302.199 183.891 302.039 183.84 301.895C183.793 301.746 183.717 301.611 183.611 301.49C183.51 301.365 183.377 301.25 183.213 301.145C183.049 301.035 182.854 300.932 182.627 300.834L181.754 300.471C180.516 299.947 179.896 299.182 179.896 298.174C179.896 297.494 180.156 296.926 180.676 296.469C181.195 296.008 181.842 295.777 182.615 295.777C183.658 295.777 184.473 296.285 185.059 297.301Z" fill="#D3D3D3"/>
<path d="M128.787 238.347C128.787 239.662 128.466 240.814 127.822 241.803C127.189 242.782 126.262 243.57 125.043 244.165C123.824 244.75 122.36 245.11 120.651 245.245V249.032H117.181V245.202C115.52 245.01 114.061 244.573 112.803 243.891C111.555 243.21 110.586 242.331 109.894 241.256C109.213 240.181 108.872 238.976 108.872 237.642H113.192C113.192 238.496 113.413 239.221 113.854 239.816C114.306 240.411 114.958 240.862 115.813 241.17C116.677 241.477 117.723 241.63 118.952 241.63C120.171 241.63 121.218 241.496 122.091 241.227C122.974 240.958 123.646 240.57 124.107 240.061C124.568 239.542 124.798 238.928 124.798 238.218C124.798 237.632 124.664 237.142 124.395 236.749C124.126 236.355 123.69 236.029 123.085 235.77C122.49 235.51 121.678 235.294 120.651 235.122V237.915H117.181V234.704C115.366 234.454 113.883 234.056 112.731 233.509C111.579 232.952 110.725 232.232 110.168 231.349C109.611 230.466 109.333 229.386 109.333 228.109C109.333 226.842 109.65 225.718 110.283 224.739C110.926 223.76 111.834 222.973 113.005 222.378C114.186 221.773 115.578 221.398 117.181 221.254V217.438H120.651V221.312C122.206 221.514 123.56 221.946 124.712 222.608C125.874 223.27 126.766 224.125 127.39 225.171C128.024 226.208 128.341 227.384 128.341 228.699H124.021C124.021 227.874 123.814 227.178 123.402 226.611C122.989 226.035 122.379 225.598 121.573 225.301C120.776 225.003 119.806 224.854 118.664 224.854C117.56 224.854 116.605 224.984 115.798 225.243C115.002 225.502 114.387 225.877 113.955 226.366C113.533 226.856 113.322 227.437 113.322 228.109C113.322 228.675 113.451 229.15 113.71 229.534C113.97 229.909 114.378 230.221 114.934 230.47C115.501 230.71 116.25 230.898 117.181 231.032V228.267H120.651V231.435C122.514 231.714 124.04 232.146 125.23 232.731C126.43 233.317 127.323 234.075 127.909 235.006C128.494 235.928 128.787 237.042 128.787 238.347ZM148.747 235.698H153.412V239.442H148.747V245H144.887V239.442H132.532V235.251L142.18 221.47H148.747V235.698ZM144.225 224.696L136.521 235.698H144.887V224.696H144.225ZM157.142 245V238.419L159.791 237.829C163.458 237.013 166.19 235.909 167.985 234.517C169.78 233.115 170.678 231.397 170.678 229.362C170.678 228.402 170.495 227.586 170.13 226.914C169.766 226.232 169.233 225.714 168.532 225.358C167.841 225.003 167.001 224.826 166.012 224.826C165.042 224.826 164.217 224.994 163.535 225.33C162.863 225.656 162.35 226.136 161.994 226.77C161.639 227.403 161.462 228.171 161.462 229.074H157.142C157.142 227.422 157.497 225.997 158.207 224.797C158.918 223.597 159.94 222.68 161.274 222.046C162.609 221.403 164.193 221.082 166.026 221.082C167.822 221.082 169.367 221.398 170.663 222.032C171.959 222.666 172.948 223.582 173.63 224.782C174.321 225.982 174.666 227.413 174.666 229.074C174.666 230.888 174.225 232.539 173.342 234.027C172.468 235.506 171.182 236.773 169.482 237.829C167.793 238.875 165.743 239.677 163.334 240.234L161.073 240.752V241.4L163.838 241.256H174.969V245H157.142ZM188.894 245.346C186.907 245.346 185.14 244.837 183.595 243.819C182.059 242.802 180.863 241.376 180.009 239.542C179.155 237.699 178.727 235.587 178.727 233.206C178.727 230.826 179.155 228.718 180.009 226.885C180.863 225.042 182.059 223.611 183.595 222.594C185.14 221.576 186.907 221.067 188.894 221.067C190.881 221.067 192.643 221.581 194.179 222.608C195.724 223.626 196.924 225.056 197.779 226.899C198.633 228.733 199.06 230.835 199.06 233.206C199.06 235.578 198.633 237.685 197.779 239.528C196.924 241.362 195.724 242.792 194.179 243.819C192.643 244.837 190.881 245.346 188.894 245.346ZM188.894 241.602C190.132 241.602 191.217 241.256 192.148 240.565C193.079 239.874 193.799 238.894 194.308 237.627C194.817 236.36 195.071 234.886 195.071 233.206C195.071 231.526 194.817 230.053 194.308 228.786C193.799 227.518 193.079 226.539 192.148 225.848C191.217 225.157 190.132 224.811 188.894 224.811C187.655 224.811 186.571 225.157 185.639 225.848C184.708 226.539 183.988 227.518 183.479 228.786C182.971 230.053 182.716 231.526 182.716 233.206C182.716 234.886 182.971 236.36 183.479 237.627C183.988 238.894 184.708 239.874 185.639 240.565C186.571 241.256 187.655 241.602 188.894 241.602ZM206.208 249.766H202.118L206.409 244.957V239.168H210.211V245.086L206.208 249.766ZM219.167 232.717H214.833L220.233 221.47H227.289V245H223.43V224.696H222.782L219.167 232.717ZM234.204 245V238.419L236.854 237.829C240.521 237.013 243.252 235.909 245.047 234.517C246.842 233.115 247.74 231.397 247.74 229.362C247.74 228.402 247.558 227.586 247.193 226.914C246.828 226.232 246.295 225.714 245.594 225.358C244.903 225.003 244.063 224.826 243.074 224.826C242.105 224.826 241.279 224.994 240.598 225.33C239.926 225.656 239.412 226.136 239.057 226.77C238.702 227.403 238.524 228.171 238.524 229.074H234.204C234.204 227.422 234.559 225.997 235.27 224.797C235.98 223.597 237.002 222.68 238.337 222.046C239.671 221.403 241.255 221.082 243.089 221.082C244.884 221.082 246.43 221.398 247.726 222.032C249.022 222.666 250.01 223.582 250.692 224.782C251.383 225.982 251.729 227.413 251.729 229.074C251.729 230.888 251.287 232.539 250.404 234.027C249.53 235.506 248.244 236.773 246.545 237.829C244.855 238.875 242.806 239.677 240.396 240.234L238.135 240.752V241.4L240.9 241.256H252.031V245H234.204ZM260.124 232.717H255.79L261.19 221.47H268.246V245H264.387V224.696H263.739L260.124 232.717ZM279.855 245H276.054V239.168H279.855V245ZM284.477 245V238.419L287.127 237.829C290.794 237.013 293.525 235.909 295.321 234.517C297.116 233.115 298.013 231.397 298.013 229.362C298.013 228.402 297.831 227.586 297.466 226.914C297.101 226.232 296.569 225.714 295.868 225.358C295.177 225.003 294.337 224.826 293.348 224.826C292.378 224.826 291.553 224.994 290.871 225.33C290.199 225.656 289.685 226.136 289.33 226.77C288.975 227.403 288.797 228.171 288.797 229.074H284.477C284.477 227.422 284.833 225.997 285.543 224.797C286.253 223.597 287.276 222.68 288.61 222.046C289.945 221.403 291.529 221.082 293.362 221.082C295.157 221.082 296.703 221.398 297.999 222.032C299.295 222.666 300.284 223.582 300.965 224.782C301.657 225.982 302.002 227.413 302.002 229.074C302.002 230.888 301.561 232.539 300.677 234.027C299.804 235.506 298.517 236.773 296.818 237.829C295.129 238.875 293.079 239.677 290.669 240.234L288.409 240.752V241.4L291.173 241.256H302.305V245H284.477ZM318.721 233.048C319.863 233.269 320.833 233.643 321.63 234.171C322.436 234.699 323.051 235.362 323.473 236.158C323.895 236.955 324.107 237.862 324.107 238.88C324.107 240.214 323.747 241.366 323.027 242.336C322.316 243.306 321.289 244.05 319.945 244.568C318.611 245.086 317.022 245.346 315.179 245.346C313.268 245.346 311.627 245.058 310.254 244.482C308.891 243.896 307.849 243.051 307.129 241.947C306.419 240.834 306.063 239.504 306.063 237.958H310.383C310.383 239.149 310.787 240.056 311.593 240.68C312.399 241.294 313.571 241.602 315.107 241.602C316.143 241.602 317.036 241.477 317.785 241.227C318.543 240.978 319.124 240.618 319.527 240.147C319.931 239.677 320.132 239.115 320.132 238.462C320.132 237.79 319.935 237.186 319.542 236.648C319.158 236.11 318.577 235.688 317.799 235.381C317.022 235.064 316.076 234.906 314.963 234.906H312.644V231.162H314.963C315.951 231.162 316.791 231.022 317.483 230.744C318.174 230.456 318.692 230.067 319.038 229.578C319.383 229.088 319.556 228.531 319.556 227.907C319.556 227.274 319.359 226.726 318.966 226.266C318.572 225.805 318.006 225.45 317.267 225.2C316.537 224.95 315.673 224.826 314.675 224.826C313.273 224.826 312.207 225.114 311.478 225.69C310.748 226.256 310.383 227.086 310.383 228.181H306.063C306.063 226.693 306.404 225.421 307.086 224.365C307.767 223.299 308.756 222.488 310.052 221.931C311.358 221.365 312.923 221.082 314.747 221.082C316.561 221.082 318.131 221.341 319.455 221.859C320.78 222.368 321.793 223.107 322.494 224.077C323.204 225.037 323.559 226.174 323.559 227.49C323.559 228.43 323.367 229.28 322.983 230.038C322.599 230.787 322.043 231.421 321.313 231.939C320.593 232.458 319.729 232.827 318.721 233.048Z" fill="white"/>
<path d="M188.664 369.197C189.396 369.42 189.974 369.83 190.396 370.428C190.817 371.025 191.028 371.731 191.028 372.546C191.028 373.729 190.627 374.658 189.824 375.332C189.021 376.006 187.905 376.343 186.476 376.343C185.063 376.343 183.947 376.006 183.127 375.332C182.307 374.658 181.896 373.747 181.896 372.599C181.896 371.761 182.107 371.04 182.529 370.437C182.951 369.833 183.534 369.42 184.278 369.197C183.622 368.922 183.139 368.562 182.828 368.116C182.523 367.665 182.371 367.1 182.371 366.42C182.371 365.406 182.746 364.583 183.496 363.95C184.246 363.317 185.239 363.001 186.476 363.001C187.729 363.001 188.726 363.32 189.464 363.959C190.208 364.592 190.58 365.444 190.58 366.517C190.58 367.149 190.416 367.697 190.088 368.16C189.76 368.617 189.285 368.963 188.664 369.197ZM186.493 365.093C186.001 365.093 185.605 365.228 185.307 365.497C185.014 365.767 184.867 366.124 184.867 366.569C184.867 367.032 185.008 367.398 185.289 367.668C185.576 367.932 185.966 368.063 186.458 368.063C186.962 368.063 187.357 367.935 187.645 367.677C187.932 367.413 188.075 367.05 188.075 366.587C188.075 366.124 187.932 365.761 187.645 365.497C187.363 365.228 186.979 365.093 186.493 365.093ZM186.476 374.181C187.085 374.181 187.562 374.014 187.908 373.68C188.26 373.34 188.436 372.877 188.436 372.291C188.436 371.693 188.263 371.228 187.917 370.894C187.571 370.554 187.091 370.384 186.476 370.384C185.866 370.384 185.383 370.557 185.025 370.902C184.668 371.248 184.489 371.711 184.489 372.291C184.489 372.871 184.665 373.331 185.017 373.671C185.374 374.011 185.86 374.181 186.476 374.181ZM196.539 376V365.418H193.964L195.045 363.256H199.132V376H196.539ZM209.688 376V373.53H203.491V372.344L209.688 363.001H212.043V371.702H213.396V373.53H212.043V376H209.688ZM209.723 371.702V367.272C209.723 366.839 209.729 366.511 209.74 366.288C209.758 366.065 209.781 365.86 209.811 365.673C209.699 365.972 209.567 366.271 209.415 366.569C209.263 366.868 209.096 367.161 208.914 367.448L206.137 371.702H209.723ZM214.671 378.918L216.367 373.407H219.065L216.35 378.918H214.671ZM229.929 369.663C229.929 371.761 229.51 373.398 228.672 374.576C227.834 375.754 226.671 376.343 225.183 376.343C223.683 376.343 222.514 375.76 221.676 374.594C220.844 373.422 220.428 371.778 220.428 369.663C220.428 367.577 220.847 365.945 221.685 364.768C222.528 363.59 223.694 363.001 225.183 363.001C226.688 363.001 227.854 363.584 228.681 364.75C229.513 365.91 229.929 367.548 229.929 369.663ZM223.091 369.681C223.091 371.063 223.27 372.124 223.627 372.862C223.984 373.601 224.497 373.97 225.165 373.97C225.851 373.97 226.369 373.604 226.721 372.871C227.072 372.139 227.248 371.063 227.248 369.646C227.248 368.245 227.072 367.182 226.721 366.455C226.369 365.729 225.856 365.365 225.183 365.365C224.503 365.365 223.984 365.734 223.627 366.473C223.27 367.211 223.091 368.28 223.091 369.681ZM240.968 369.663C240.968 371.761 240.549 373.398 239.711 374.576C238.873 375.754 237.71 376.343 236.222 376.343C234.722 376.343 233.553 375.76 232.715 374.594C231.883 373.422 231.467 371.778 231.467 369.663C231.467 367.577 231.886 365.945 232.724 364.768C233.567 363.59 234.733 363.001 236.222 363.001C237.728 363.001 238.894 363.584 239.72 364.75C240.552 365.91 240.968 367.548 240.968 369.663ZM234.13 369.681C234.13 371.063 234.309 372.124 234.666 372.862C235.023 373.601 235.536 373.97 236.204 373.97C236.89 373.97 237.408 373.604 237.76 372.871C238.111 372.139 238.287 371.063 238.287 369.646C238.287 368.245 238.111 367.182 237.76 366.455C237.408 365.729 236.896 365.365 236.222 365.365C235.542 365.365 235.023 365.734 234.666 366.473C234.309 367.211 234.13 368.28 234.13 369.681ZM252.007 369.663C252.007 371.761 251.588 373.398 250.75 374.576C249.912 375.754 248.749 376.343 247.261 376.343C245.761 376.343 244.592 375.76 243.754 374.594C242.922 373.422 242.506 371.778 242.506 369.663C242.506 367.577 242.925 365.945 243.763 364.768C244.606 363.59 245.772 363.001 247.261 363.001C248.767 363.001 249.933 363.584 250.759 364.75C251.591 365.91 252.007 367.548 252.007 369.663ZM245.169 369.681C245.169 371.063 245.348 372.124 245.705 372.862C246.062 373.601 246.575 373.97 247.243 373.97C247.929 373.97 248.447 373.604 248.799 372.871C249.15 372.139 249.326 371.063 249.326 369.646C249.326 368.245 249.15 367.182 248.799 366.455C248.447 365.729 247.935 365.365 247.261 365.365C246.581 365.365 246.062 365.734 245.705 366.473C245.348 367.211 245.169 368.28 245.169 369.681ZM270.815 363.133V371.14C270.815 372.886 270.355 374.189 269.436 375.051C268.516 375.912 267.13 376.343 265.278 376.343C263.397 376.343 261.997 375.912 261.077 375.051C260.157 374.189 259.697 372.886 259.697 371.14V363.133H262.431V370.709C262.431 371.77 262.665 372.569 263.134 373.108C263.603 373.642 264.303 373.908 265.234 373.908C266.172 373.908 266.881 373.639 267.361 373.1C267.842 372.561 268.082 371.764 268.082 370.709V363.133H270.815ZM272.846 374.365L274.375 372.634C274.568 373.108 274.879 373.483 275.307 373.759C275.734 374.028 276.215 374.163 276.748 374.163C277.393 374.163 277.902 374.011 278.277 373.706C278.652 373.401 278.84 372.991 278.84 372.476C278.84 371.866 278.216 371.26 276.968 370.656C276.563 370.463 276.244 370.305 276.01 370.182C274.885 369.596 274.105 369.024 273.672 368.468C273.238 367.905 273.021 367.237 273.021 366.464C273.021 365.403 273.44 364.533 274.278 363.854C275.122 363.168 276.215 362.825 277.557 362.825C278.336 362.825 279.007 362.963 279.569 363.238C280.138 363.508 280.639 363.933 281.072 364.513L279.446 366.068C279.253 365.693 278.995 365.415 278.673 365.233C278.356 365.046 277.973 364.952 277.521 364.952C276.977 364.952 276.537 365.09 276.203 365.365C275.869 365.635 275.702 365.986 275.702 366.42C275.702 367.1 276.364 367.721 277.688 368.283C277.952 368.395 278.154 368.482 278.295 368.547C279.385 369.045 280.19 369.607 280.712 370.234C281.239 370.861 281.503 371.576 281.503 372.379C281.503 373.586 281.09 374.55 280.264 375.271C279.443 375.985 278.339 376.343 276.95 376.343C275.966 376.343 275.122 376.173 274.419 375.833C273.716 375.493 273.191 375.004 272.846 374.365ZM286.513 373.68H288.042C289.483 373.68 290.532 373.352 291.188 372.695C291.851 372.039 292.182 370.999 292.182 369.575C292.182 368.157 291.851 367.12 291.188 366.464C290.532 365.802 289.483 365.471 288.042 365.471H286.513V373.68ZM283.762 376V363.133H287.269C288.651 363.133 289.741 363.229 290.538 363.423C291.335 363.616 292.035 363.938 292.639 364.39C293.418 364.97 294.007 365.702 294.405 366.587C294.81 367.466 295.012 368.468 295.012 369.593C295.012 370.735 294.807 371.749 294.396 372.634C293.986 373.513 293.386 374.239 292.595 374.813C292.009 375.235 291.355 375.54 290.635 375.728C289.92 375.909 288.871 376 287.488 376H286.513H283.762Z" fill="white"/>
<circle cx="144.5" cy="446.5" r="22.5" fill="#928408"/>
<path d="M137.375 440H154L151.889 446H135L137.375 440Z" fill="white"/>
<path d="M138.625 449H157L154.667 455H136L138.625 449Z" fill="white"/>
<path d="M179.932 438L185.558 429.079H180.991V427.992H187.574L182.003 436.865H187.349V438H179.932ZM193.809 434.931C193.809 434.224 193.615 433.657 193.228 433.229C192.845 432.796 192.343 432.579 191.724 432.579C191.081 432.579 190.58 432.777 190.22 433.174C189.86 433.57 189.68 434.124 189.68 434.835C189.68 435.591 189.86 436.175 190.22 436.585C190.584 436.995 191.099 437.2 191.765 437.2C192.403 437.2 192.902 437.002 193.262 436.605C193.626 436.204 193.809 435.646 193.809 434.931ZM194.848 431.745V438H193.809V436.865C193.558 437.321 193.237 437.67 192.845 437.911C192.457 438.148 192.022 438.267 191.539 438.267C190.641 438.267 189.917 437.959 189.365 437.344C188.818 436.724 188.545 435.906 188.545 434.89C188.545 433.86 188.812 433.042 189.345 432.436C189.878 431.825 190.591 431.52 191.484 431.52C192.008 431.52 192.462 431.638 192.845 431.875C193.232 432.107 193.544 432.456 193.781 432.921V431.745H194.848ZM205.703 438V434.315C205.703 433.682 205.576 433.213 205.32 432.907C205.065 432.597 204.673 432.442 204.145 432.442C203.857 432.442 203.591 432.502 203.345 432.62C203.103 432.734 202.898 432.898 202.729 433.112C202.606 433.276 202.518 433.468 202.463 433.687C202.408 433.905 202.381 434.265 202.381 434.767V438H201.349V434.315C201.349 433.682 201.221 433.213 200.966 432.907C200.711 432.597 200.319 432.442 199.79 432.442C199.503 432.442 199.234 432.502 198.983 432.62C198.737 432.734 198.53 432.898 198.361 433.112C198.243 433.272 198.156 433.456 198.102 433.666C198.051 433.876 198.026 434.243 198.026 434.767V438H196.994V431.745H198.04V432.709C198.3 432.308 198.61 432.009 198.97 431.813C199.33 431.618 199.744 431.52 200.214 431.52C200.72 431.52 201.15 431.629 201.506 431.848C201.861 432.062 202.13 432.376 202.312 432.791C202.581 432.363 202.898 432.044 203.263 431.834C203.632 431.624 204.058 431.52 204.541 431.52C205.238 431.52 205.783 431.715 206.175 432.107C206.567 432.499 206.763 433.044 206.763 433.741V438H205.703ZM209.907 434.89C209.907 435.591 210.101 436.154 210.488 436.578C210.876 437.002 211.388 437.214 212.026 437.214C212.651 437.214 213.141 437.02 213.496 436.633C213.856 436.245 214.036 435.708 214.036 435.02C214.036 434.249 213.856 433.646 213.496 433.208C213.141 432.771 212.644 432.552 212.006 432.552C211.354 432.552 210.841 432.759 210.468 433.174C210.094 433.589 209.907 434.16 209.907 434.89ZM208.875 441.049V431.745H209.894V432.921C210.135 432.47 210.454 432.123 210.851 431.882C211.247 431.64 211.689 431.52 212.177 431.52C213.079 431.52 213.804 431.827 214.351 432.442C214.897 433.058 215.171 433.873 215.171 434.89C215.171 435.924 214.902 436.747 214.364 437.357C213.831 437.964 213.116 438.267 212.218 438.267C211.703 438.267 211.254 438.15 210.871 437.918C210.488 437.681 210.176 437.33 209.935 436.865V441.049H208.875ZM225.801 434.931C225.801 434.224 225.607 433.657 225.22 433.229C224.837 432.796 224.336 432.579 223.716 432.579C223.073 432.579 222.572 432.777 222.212 433.174C221.852 433.57 221.672 434.124 221.672 434.835C221.672 435.591 221.852 436.175 222.212 436.585C222.576 436.995 223.091 437.2 223.757 437.2C224.395 437.2 224.894 437.002 225.254 436.605C225.618 436.204 225.801 435.646 225.801 434.931ZM226.84 431.745V438H225.801V436.865C225.55 437.321 225.229 437.67 224.837 437.911C224.45 438.148 224.014 438.267 223.531 438.267C222.633 438.267 221.909 437.959 221.357 437.344C220.811 436.724 220.537 435.906 220.537 434.89C220.537 433.86 220.804 433.042 221.337 432.436C221.87 431.825 222.583 431.52 223.477 431.52C224.001 431.52 224.454 431.638 224.837 431.875C225.224 432.107 225.536 432.456 225.773 432.921V431.745H226.84ZM233.785 436.517V437.761C233.503 437.929 233.184 438.055 232.828 438.137C232.477 438.223 232.097 438.267 231.687 438.267C230.72 438.267 229.941 437.961 229.349 437.351C228.761 436.735 228.467 435.929 228.467 434.931C228.467 433.928 228.772 433.11 229.383 432.477C229.993 431.839 230.775 431.52 231.728 431.52C232.074 431.52 232.411 431.556 232.739 431.629C233.072 431.702 233.384 431.809 233.676 431.95V433.099C233.402 432.921 233.12 432.786 232.828 432.695C232.536 432.6 232.24 432.552 231.939 432.552C231.238 432.552 230.675 432.773 230.251 433.215C229.827 433.652 229.615 434.236 229.615 434.965C229.615 435.607 229.827 436.145 230.251 436.578C230.679 437.011 231.215 437.228 231.857 437.228C232.181 437.228 232.498 437.171 232.808 437.057C233.118 436.943 233.443 436.763 233.785 436.517ZM240.074 436.517V437.761C239.792 437.929 239.473 438.055 239.117 438.137C238.766 438.223 238.386 438.267 237.976 438.267C237.009 438.267 236.23 437.961 235.638 437.351C235.05 436.735 234.756 435.929 234.756 434.931C234.756 433.928 235.061 433.11 235.672 432.477C236.283 431.839 237.064 431.52 238.017 431.52C238.363 431.52 238.7 431.556 239.028 431.629C239.361 431.702 239.673 431.809 239.965 431.95V433.099C239.691 432.921 239.409 432.786 239.117 432.695C238.826 432.6 238.529 432.552 238.229 432.552C237.527 432.552 236.964 432.773 236.54 433.215C236.116 433.652 235.904 434.236 235.904 434.965C235.904 435.607 236.116 436.145 236.54 436.578C236.968 437.011 237.504 437.228 238.146 437.228C238.47 437.228 238.787 437.171 239.097 437.057C239.407 436.943 239.732 436.763 240.074 436.517ZM242.193 434.89C242.193 435.55 242.414 436.111 242.856 436.571C243.299 437.027 243.834 437.255 244.463 437.255C245.087 437.255 245.618 437.027 246.056 436.571C246.493 436.111 246.712 435.55 246.712 434.89C246.712 434.229 246.493 433.671 246.056 433.215C245.618 432.755 245.087 432.524 244.463 432.524C243.829 432.524 243.292 432.755 242.85 433.215C242.412 433.671 242.193 434.229 242.193 434.89ZM241.059 434.89C241.059 434.429 241.143 433.996 241.312 433.591C241.48 433.181 241.726 432.816 242.05 432.497C242.373 432.178 242.74 431.937 243.15 431.772C243.561 431.604 243.998 431.52 244.463 431.52C244.919 431.52 245.349 431.604 245.755 431.772C246.165 431.941 246.536 432.187 246.869 432.511C247.193 432.825 247.439 433.188 247.607 433.598C247.776 434.003 247.86 434.434 247.86 434.89C247.86 435.345 247.776 435.776 247.607 436.182C247.439 436.583 247.193 436.94 246.869 437.255C246.536 437.583 246.163 437.834 245.748 438.007C245.338 438.18 244.91 438.267 244.463 438.267C244.003 438.267 243.565 438.18 243.15 438.007C242.74 437.838 242.373 437.594 242.05 437.275C241.726 436.947 241.48 436.583 241.312 436.182C241.143 435.781 241.059 435.35 241.059 434.89ZM250.54 431.745V434.821C250.54 435.719 250.672 436.348 250.937 436.708C251.205 437.063 251.657 437.241 252.29 437.241C252.924 437.241 253.37 437.066 253.63 436.715C253.894 436.359 254.026 435.728 254.026 434.821V431.745H255.12V435.396C255.12 436.339 254.879 437.054 254.396 437.542C253.912 438.025 253.201 438.267 252.263 438.267C251.333 438.267 250.627 438.023 250.144 437.535C249.66 437.048 249.419 436.334 249.419 435.396V431.745H250.54ZM257.191 438V431.745H258.237V432.709C258.506 432.308 258.83 432.009 259.208 431.813C259.586 431.618 260.024 431.52 260.521 431.52C261.259 431.52 261.835 431.715 262.25 432.107C262.665 432.499 262.872 433.044 262.872 433.741V438H261.778V434.315C261.778 433.682 261.644 433.213 261.375 432.907C261.111 432.597 260.701 432.442 260.145 432.442C259.826 432.442 259.534 432.502 259.27 432.62C259.01 432.734 258.793 432.898 258.62 433.112C258.488 433.276 258.392 433.463 258.333 433.673C258.278 433.882 258.251 434.247 258.251 434.767V438H257.191ZM265.162 432.627H264.014V431.745H265.162V429.223H266.256V431.745H267.404V432.627H266.256V438H265.162V432.627ZM273.769 434.903C273.769 435.632 273.955 436.202 274.329 436.612C274.703 437.022 275.215 437.228 275.867 437.228C276.505 437.228 277.004 437.011 277.364 436.578C277.729 436.141 277.911 435.537 277.911 434.767C277.911 434.083 277.733 433.548 277.378 433.16C277.022 432.773 276.53 432.579 275.901 432.579C275.263 432.579 274.748 432.793 274.356 433.222C273.965 433.646 273.769 434.206 273.769 434.903ZM272.75 427.404H273.81V432.921C274.051 432.456 274.363 432.107 274.746 431.875C275.129 431.638 275.578 431.52 276.093 431.52C276.991 431.52 277.706 431.825 278.239 432.436C278.777 433.046 279.046 433.864 279.046 434.89C279.046 435.906 278.772 436.724 278.226 437.344C277.679 437.959 276.954 438.267 276.052 438.267C275.569 438.267 275.129 438.146 274.732 437.904C274.336 437.658 274.015 437.312 273.769 436.865V438H272.75V427.404ZM285.547 434.931C285.547 434.224 285.353 433.657 284.966 433.229C284.583 432.796 284.082 432.579 283.462 432.579C282.819 432.579 282.318 432.777 281.958 433.174C281.598 433.57 281.418 434.124 281.418 434.835C281.418 435.591 281.598 436.175 281.958 436.585C282.323 436.995 282.838 437.2 283.503 437.2C284.141 437.2 284.64 437.002 285 436.605C285.365 436.204 285.547 435.646 285.547 434.931ZM286.586 431.745V438H285.547V436.865C285.296 437.321 284.975 437.67 284.583 437.911C284.196 438.148 283.76 438.267 283.277 438.267C282.38 438.267 281.655 437.959 281.104 437.344C280.557 436.724 280.283 435.906 280.283 434.89C280.283 433.86 280.55 433.042 281.083 432.436C281.616 431.825 282.329 431.52 283.223 431.52C283.747 431.52 284.2 431.638 284.583 431.875C284.97 432.107 285.283 432.456 285.52 432.921V431.745H286.586ZM288.787 438V427.404H289.881V438H288.787ZM296.908 434.931C296.908 434.224 296.715 433.657 296.327 433.229C295.944 432.796 295.443 432.579 294.823 432.579C294.181 432.579 293.679 432.777 293.319 433.174C292.959 433.57 292.779 434.124 292.779 434.835C292.779 435.591 292.959 436.175 293.319 436.585C293.684 436.995 294.199 437.2 294.864 437.2C295.502 437.2 296.001 437.002 296.361 436.605C296.726 436.204 296.908 435.646 296.908 434.931ZM297.947 431.745V438H296.908V436.865C296.658 437.321 296.336 437.67 295.944 437.911C295.557 438.148 295.122 438.267 294.639 438.267C293.741 438.267 293.016 437.959 292.465 437.344C291.918 436.724 291.645 435.906 291.645 434.89C291.645 433.86 291.911 433.042 292.444 432.436C292.978 431.825 293.691 431.52 294.584 431.52C295.108 431.52 295.562 431.638 295.944 431.875C296.332 432.107 296.644 432.456 296.881 432.921V431.745H297.947ZM300.094 438V431.745H301.14V432.709C301.409 432.308 301.732 432.009 302.11 431.813C302.489 431.618 302.926 431.52 303.423 431.52C304.161 431.52 304.738 431.715 305.152 432.107C305.567 432.499 305.774 433.044 305.774 433.741V438H304.681V434.315C304.681 433.682 304.546 433.213 304.277 432.907C304.013 432.597 303.603 432.442 303.047 432.442C302.728 432.442 302.436 432.502 302.172 432.62C301.912 432.734 301.696 432.898 301.522 433.112C301.39 433.276 301.295 433.463 301.235 433.673C301.181 433.882 301.153 434.247 301.153 434.767V438H300.094ZM312.699 436.517V437.761C312.417 437.929 312.098 438.055 311.742 438.137C311.391 438.223 311.011 438.267 310.601 438.267C309.634 438.267 308.855 437.961 308.263 437.351C307.675 436.735 307.381 435.929 307.381 434.931C307.381 433.928 307.686 433.11 308.297 432.477C308.908 431.839 309.689 431.52 310.642 431.52C310.988 431.52 311.325 431.556 311.653 431.629C311.986 431.702 312.298 431.809 312.59 431.95V433.099C312.316 432.921 312.034 432.786 311.742 432.695C311.451 432.6 311.154 432.552 310.854 432.552C310.152 432.552 309.589 432.773 309.165 433.215C308.741 433.652 308.529 434.236 308.529 434.965C308.529 435.607 308.741 436.145 309.165 436.578C309.593 437.011 310.129 437.228 310.771 437.228C311.095 437.228 311.412 437.171 311.722 437.057C312.032 436.943 312.357 436.763 312.699 436.517ZM318.626 434.165C318.59 433.614 318.405 433.19 318.072 432.894C317.744 432.593 317.293 432.442 316.719 432.442C316.199 432.442 315.766 432.6 315.42 432.914C315.074 433.224 314.873 433.641 314.818 434.165H318.626ZM319.774 435.033H314.818V435.129C314.818 435.799 315.01 436.341 315.393 436.756C315.775 437.166 316.274 437.371 316.89 437.371C317.309 437.371 317.687 437.259 318.024 437.036C318.362 436.808 318.66 436.466 318.92 436.011L319.733 436.558C319.419 437.123 319.018 437.549 318.53 437.836C318.043 438.123 317.478 438.267 316.835 438.267C315.882 438.267 315.112 437.952 314.524 437.323C313.937 436.694 313.643 435.869 313.643 434.849C313.643 433.869 313.934 433.067 314.518 432.442C315.101 431.818 315.851 431.506 316.767 431.506C317.692 431.506 318.423 431.802 318.961 432.395C319.503 432.987 319.774 433.796 319.774 434.821V435.033Z" fill="white"/>
<path d="M189.615 457.873V460H180.703L185.273 454.006C185.906 453.18 186.346 452.529 186.592 452.055C186.844 451.58 186.97 451.161 186.97 450.798C186.97 450.294 186.817 449.898 186.513 449.611C186.214 449.324 185.801 449.181 185.273 449.181C184.781 449.181 184.389 449.362 184.096 449.726C183.803 450.083 183.656 450.566 183.656 451.176V451.237H181.063V451.018C181.063 449.74 181.43 448.753 182.162 448.056C182.895 447.353 183.932 447.001 185.273 447.001C186.645 447.001 187.711 447.314 188.473 447.941C189.234 448.568 189.615 449.444 189.615 450.569C189.615 451.835 188.625 453.704 186.645 456.177L186.46 456.396L185.273 457.873H189.615ZM197.648 460V457.53H191.452V456.344L197.648 447.001H200.004V455.702H201.357V457.53H200.004V460H197.648ZM197.684 455.702V451.272C197.684 450.839 197.689 450.511 197.701 450.288C197.719 450.065 197.742 449.86 197.771 449.673C197.66 449.972 197.528 450.271 197.376 450.569C197.224 450.868 197.057 451.161 196.875 451.448L194.098 455.702H197.684ZM211.693 457.873V460H202.781L207.352 454.006C207.984 453.18 208.424 452.529 208.67 452.055C208.922 451.58 209.048 451.161 209.048 450.798C209.048 450.294 208.896 449.898 208.591 449.611C208.292 449.324 207.879 449.181 207.352 449.181C206.859 449.181 206.467 449.362 206.174 449.726C205.881 450.083 205.734 450.566 205.734 451.176V451.237H203.142V451.018C203.142 449.74 203.508 448.753 204.24 448.056C204.973 447.353 206.01 447.001 207.352 447.001C208.723 447.001 209.789 447.314 210.551 447.941C211.312 448.568 211.693 449.444 211.693 450.569C211.693 451.835 210.703 453.704 208.723 456.177L208.538 456.396L207.352 457.873H211.693ZM213.671 462.918L215.367 457.407H218.065L215.35 462.918H213.671ZM228.929 453.663C228.929 455.761 228.51 457.398 227.672 458.576C226.834 459.754 225.671 460.343 224.183 460.343C222.683 460.343 221.514 459.76 220.676 458.594C219.844 457.422 219.428 455.778 219.428 453.663C219.428 451.577 219.847 449.945 220.685 448.768C221.528 447.59 222.694 447.001 224.183 447.001C225.688 447.001 226.854 447.584 227.681 448.75C228.513 449.91 228.929 451.548 228.929 453.663ZM222.091 453.681C222.091 455.063 222.27 456.124 222.627 456.862C222.984 457.601 223.497 457.97 224.165 457.97C224.851 457.97 225.369 457.604 225.721 456.871C226.072 456.139 226.248 455.063 226.248 453.646C226.248 452.245 226.072 451.182 225.721 450.455C225.369 449.729 224.856 449.365 224.183 449.365C223.503 449.365 222.984 449.734 222.627 450.473C222.27 451.211 222.091 452.28 222.091 453.681ZM239.968 453.663C239.968 455.761 239.549 457.398 238.711 458.576C237.873 459.754 236.71 460.343 235.222 460.343C233.722 460.343 232.553 459.76 231.715 458.594C230.883 457.422 230.467 455.778 230.467 453.663C230.467 451.577 230.886 449.945 231.724 448.768C232.567 447.59 233.733 447.001 235.222 447.001C236.728 447.001 237.894 447.584 238.72 448.75C239.552 449.91 239.968 451.548 239.968 453.663ZM233.13 453.681C233.13 455.063 233.309 456.124 233.666 456.862C234.023 457.601 234.536 457.97 235.204 457.97C235.89 457.97 236.408 457.604 236.76 456.871C237.111 456.139 237.287 455.063 237.287 453.646C237.287 452.245 237.111 451.182 236.76 450.455C236.408 449.729 235.896 449.365 235.222 449.365C234.542 449.365 234.023 449.734 233.666 450.473C233.309 451.211 233.13 452.28 233.13 453.681ZM251.007 453.663C251.007 455.761 250.588 457.398 249.75 458.576C248.912 459.754 247.749 460.343 246.261 460.343C244.761 460.343 243.592 459.76 242.754 458.594C241.922 457.422 241.506 455.778 241.506 453.663C241.506 451.577 241.925 449.945 242.763 448.768C243.606 447.59 244.772 447.001 246.261 447.001C247.767 447.001 248.933 447.584 249.759 448.75C250.591 449.91 251.007 451.548 251.007 453.663ZM244.169 453.681C244.169 455.063 244.348 456.124 244.705 456.862C245.062 457.601 245.575 457.97 246.243 457.97C246.929 457.97 247.447 457.604 247.799 456.871C248.15 456.139 248.326 455.063 248.326 453.646C248.326 452.245 248.15 451.182 247.799 450.455C247.447 449.729 246.935 449.365 246.261 449.365C245.581 449.365 245.062 449.734 244.705 450.473C244.348 451.211 244.169 452.28 244.169 453.681ZM269.815 447.133V455.14C269.815 456.886 269.355 458.189 268.436 459.051C267.516 459.912 266.13 460.343 264.278 460.343C262.397 460.343 260.997 459.912 260.077 459.051C259.157 458.189 258.697 456.886 258.697 455.14V447.133H261.431V454.709C261.431 455.77 261.665 456.569 262.134 457.108C262.603 457.642 263.303 457.908 264.234 457.908C265.172 457.908 265.881 457.639 266.361 457.1C266.842 456.561 267.082 455.764 267.082 454.709V447.133H269.815ZM271.846 458.365L273.375 456.634C273.568 457.108 273.879 457.483 274.307 457.759C274.734 458.028 275.215 458.163 275.748 458.163C276.393 458.163 276.902 458.011 277.277 457.706C277.652 457.401 277.84 456.991 277.84 456.476C277.84 455.866 277.216 455.26 275.968 454.656C275.563 454.463 275.244 454.305 275.01 454.182C273.885 453.596 273.105 453.024 272.672 452.468C272.238 451.905 272.021 451.237 272.021 450.464C272.021 449.403 272.44 448.533 273.278 447.854C274.122 447.168 275.215 446.825 276.557 446.825C277.336 446.825 278.007 446.963 278.569 447.238C279.138 447.508 279.639 447.933 280.072 448.513L278.446 450.068C278.253 449.693 277.995 449.415 277.673 449.233C277.356 449.046 276.973 448.952 276.521 448.952C275.977 448.952 275.537 449.09 275.203 449.365C274.869 449.635 274.702 449.986 274.702 450.42C274.702 451.1 275.364 451.721 276.688 452.283C276.952 452.395 277.154 452.482 277.295 452.547C278.385 453.045 279.19 453.607 279.712 454.234C280.239 454.861 280.503 455.576 280.503 456.379C280.503 457.586 280.09 458.55 279.264 459.271C278.443 459.985 277.339 460.343 275.95 460.343C274.966 460.343 274.122 460.173 273.419 459.833C272.716 459.493 272.191 459.004 271.846 458.365ZM285.513 457.68H287.042C288.483 457.68 289.532 457.352 290.188 456.695C290.851 456.039 291.182 454.999 291.182 453.575C291.182 452.157 290.851 451.12 290.188 450.464C289.532 449.802 288.483 449.471 287.042 449.471H285.513V457.68ZM282.762 460V447.133H286.269C287.651 447.133 288.741 447.229 289.538 447.423C290.335 447.616 291.035 447.938 291.639 448.39C292.418 448.97 293.007 449.702 293.405 450.587C293.81 451.466 294.012 452.468 294.012 453.593C294.012 454.735 293.807 455.749 293.396 456.634C292.986 457.513 292.386 458.239 291.595 458.813C291.009 459.235 290.355 459.54 289.635 459.728C288.92 459.909 287.871 460 286.488 460H285.513H282.762Z" fill="white"/>
<defs>
<filter id="filter0_b_419_521" x="97" y="315" width="341" height="95" filterUnits="userSpaceOnUse" color-interpolation-filters="sRGB">
<feFlood flood-opacity="0" result="BackgroundImageFix"/>
<feGaussianBlur in="BackgroundImageFix" stdDeviation="5"/>
<feComposite in2="SourceAlpha" operator="in" result="effect1_backgroundBlur_419_521"/>
<feBlend mode="normal" in="SourceGraphic" in2="effect1_backgroundBlur_419_521" result="shape"/>
</filter>
<filter id="filter1_b_419_521" x="97" y="399" width="341" height="95" filterUnits="userSpaceOnUse" color-interpolation-filters="sRGB">
<feFlood flood-opacity="0" result="BackgroundImageFix"/>
<feGaussianBlur in="BackgroundImageFix" stdDeviation="5"/>
<feComposite in2="SourceAlpha" operator="in" result="effect1_backgroundBlur_419_521"/>
<feBlend mode="normal" in="SourceGraphic" in2="effect1_backgroundBlur_419_521" result="shape"/>
</filter>
<radialGradient id="paint0_radial_419_521" cx="0" cy="0" r="1" gradientUnits="userSpaceOnUse" gradientTransform="translate(267.5 325.5) rotate(90) scale(325.5 267.5)">
<stop stop-color="#D9D9D9"/>
<stop offset="0.0001" stop-color="#4E9FAD"/>
<stop offset="1" stop-color="#30113C"/>
</radialGradient>
<clipPath id="clip0_419_521">
<rect width="40" height="40" fill="white" transform="translate(125 341)"/>
</clipPath>
</defs>
</svg>
