<svg width="535" height="651" viewBox="0 0 535 651" fill="none" xmlns="http://www.w3.org/2000/svg">
<mask id="mask0_101_339" style="mask-type:alpha" maskUnits="userSpaceOnUse" x="0" y="0" width="535" height="651">
<rect width="535" height="651" rx="267.5" fill="#D9D9D9"/>
</mask>
<g mask="url(#mask0_101_339)">
<rect width="535" height="651" rx="267.5" fill="url(#paint0_radial_101_339)"/>
</g>
<g filter="url(#filter0_b_101_339)">
<rect x="105" y="148" width="326" height="76" rx="8" fill="white" fill-opacity="0.3"/>
</g>
<g filter="url(#filter1_b_101_339)">
<rect x="105" y="231" width="326" height="76" rx="8" fill="white" fill-opacity="0.3"/>
</g>
<g filter="url(#filter2_b_101_339)">
<rect x="105" y="314" width="326" height="76" rx="8" fill="white" fill-opacity="0.3"/>
</g>
<rect x="105" y="426" width="328" height="67" rx="8" fill="white"/>
<path d="M217.034 465.151C216.035 465.151 215.15 464.99 214.377 464.669C213.604 464.347 213.004 463.896 212.577 463.315C212.15 462.734 211.936 462.07 211.936 461.321H214.096C214.096 461.748 214.206 462.11 214.427 462.408C214.653 462.706 214.979 462.931 215.406 463.085C215.838 463.238 216.362 463.315 216.976 463.315C217.586 463.315 218.109 463.248 218.546 463.114C218.987 462.979 219.323 462.785 219.554 462.53C219.784 462.271 219.899 461.964 219.899 461.609C219.899 461.258 219.798 460.975 219.597 460.759C219.395 460.538 219.066 460.363 218.61 460.234C218.154 460.104 217.523 460.001 216.717 459.924C215.661 459.823 214.799 459.638 214.132 459.37C213.465 459.101 212.97 458.736 212.649 458.275C212.327 457.81 212.166 457.236 212.166 456.554C212.166 455.858 212.358 455.251 212.742 454.733C213.126 454.21 213.669 453.806 214.37 453.523C215.075 453.235 215.896 453.091 216.832 453.091C217.792 453.091 218.637 453.247 219.366 453.559C220.101 453.871 220.667 454.313 221.066 454.884C221.469 455.45 221.67 456.106 221.67 456.85H219.51C219.51 456.437 219.407 456.089 219.201 455.806C218.994 455.518 218.69 455.299 218.286 455.15C217.888 455.002 217.403 454.927 216.832 454.927C216.28 454.927 215.802 454.992 215.399 455.122C215.001 455.251 214.694 455.438 214.478 455.683C214.266 455.928 214.161 456.218 214.161 456.554C214.161 456.881 214.247 457.147 214.42 457.354C214.598 457.555 214.876 457.716 215.255 457.836C215.639 457.956 216.153 458.042 216.796 458.095C217.967 458.196 218.927 458.39 219.676 458.678C220.425 458.962 220.982 459.35 221.346 459.845C221.711 460.339 221.894 460.949 221.894 461.674C221.894 462.398 221.699 463.022 221.31 463.546C220.926 464.064 220.37 464.462 219.64 464.741C218.915 465.014 218.046 465.151 217.034 465.151ZM231.938 461.508H225.292C225.355 461.926 225.496 462.286 225.717 462.588C225.938 462.886 226.224 463.114 226.574 463.272C226.924 463.43 227.325 463.51 227.776 463.51C228.276 463.51 228.696 463.409 229.036 463.207C229.377 463.001 229.624 462.708 229.778 462.329H231.866C231.669 462.938 231.379 463.457 230.995 463.884C230.616 464.306 230.155 464.626 229.612 464.842C229.07 465.058 228.465 465.166 227.798 465.166C226.929 465.166 226.168 464.993 225.516 464.647C224.863 464.297 224.356 463.807 223.996 463.178C223.641 462.545 223.464 461.82 223.464 461.004C223.464 460.159 223.651 459.413 224.025 458.765C224.4 458.112 224.913 457.608 225.566 457.253C226.224 456.898 226.96 456.72 227.776 456.72C228.612 456.72 229.344 456.905 229.972 457.274C230.601 457.644 231.086 458.155 231.427 458.808C231.768 459.456 231.938 460.19 231.938 461.011V461.508ZM230.037 460.032C229.941 459.691 229.79 459.396 229.584 459.146C229.377 458.897 229.12 458.705 228.813 458.57C228.506 458.436 228.156 458.369 227.762 458.369C227.368 458.369 227.011 458.436 226.689 458.57C226.372 458.7 226.101 458.89 225.876 459.139C225.655 459.389 225.492 459.686 225.386 460.032H230.037ZM233.36 465V456.907H235.261V458.146C235.396 457.843 235.592 457.586 235.852 457.375C236.116 457.164 236.428 457.006 236.788 456.9C237.152 456.79 237.553 456.734 237.99 456.734C238.705 456.734 239.324 456.869 239.848 457.138C240.376 457.406 240.779 457.79 241.057 458.29C241.336 458.789 241.475 459.379 241.475 460.061V465H239.574V460.558C239.574 460.135 239.497 459.773 239.344 459.47C239.195 459.168 238.969 458.938 238.667 458.779C238.364 458.621 237.995 458.542 237.558 458.542C237.15 458.542 236.778 458.616 236.442 458.765C236.111 458.914 235.84 459.149 235.628 459.47C235.417 459.787 235.295 460.19 235.261 460.68V465H233.36ZM249.435 452.033H251.322V465H249.435V463.906C249.152 464.323 248.792 464.638 248.355 464.849C247.923 465.06 247.415 465.166 246.829 465.166C246.051 465.166 245.365 464.99 244.77 464.64C244.179 464.29 243.721 463.795 243.395 463.157C243.068 462.518 242.905 461.782 242.905 460.946C242.905 460.111 243.068 459.374 243.395 458.736C243.721 458.098 244.179 457.603 244.77 457.253C245.365 456.902 246.051 456.727 246.829 456.727C247.415 456.727 247.923 456.833 248.355 457.044C248.792 457.255 249.152 457.57 249.435 457.987V452.033ZM247.131 463.366C247.592 463.366 247.995 463.267 248.341 463.07C248.691 462.869 248.96 462.586 249.147 462.221C249.339 461.856 249.435 461.431 249.435 460.946C249.435 460.462 249.339 460.037 249.147 459.672C248.96 459.307 248.691 459.026 248.341 458.83C247.995 458.628 247.592 458.527 247.131 458.527C246.671 458.527 246.265 458.628 245.915 458.83C245.564 459.026 245.293 459.307 245.101 459.672C244.914 460.037 244.82 460.462 244.82 460.946C244.82 461.431 244.916 461.856 245.108 462.221C245.3 462.586 245.569 462.869 245.915 463.07C246.265 463.267 246.671 463.366 247.131 463.366ZM262.656 456.742C263.433 456.742 264.117 456.917 264.708 457.267C265.303 457.618 265.764 458.112 266.09 458.75C266.417 459.389 266.58 460.126 266.58 460.961C266.58 461.796 266.417 462.533 266.09 463.171C265.764 463.81 265.303 464.304 264.708 464.654C264.117 465.005 263.433 465.18 262.656 465.18C262.07 465.18 261.559 465.074 261.122 464.863C260.69 464.652 260.333 464.338 260.049 463.92V469.392H258.163V456.907H260.049V458.002C260.333 457.584 260.69 457.27 261.122 457.058C261.559 456.847 262.07 456.742 262.656 456.742ZM262.353 463.38C262.814 463.38 263.22 463.282 263.57 463.085C263.921 462.883 264.189 462.6 264.377 462.235C264.569 461.87 264.665 461.446 264.665 460.961C264.665 460.476 264.569 460.051 264.377 459.686C264.185 459.322 263.913 459.041 263.563 458.844C263.217 458.642 262.814 458.542 262.353 458.542C261.893 458.542 261.487 458.642 261.137 458.844C260.791 459.041 260.522 459.322 260.33 459.686C260.143 460.051 260.049 460.476 260.049 460.961C260.049 461.446 260.143 461.87 260.33 462.235C260.522 462.6 260.791 462.883 261.137 463.085C261.487 463.282 261.893 463.38 262.353 463.38ZM274.379 456.9H276.265V465H274.379V463.819C274.105 464.266 273.748 464.602 273.306 464.827C272.869 465.053 272.353 465.166 271.758 465.166C270.985 465.166 270.304 464.99 269.713 464.64C269.123 464.285 268.664 463.788 268.338 463.15C268.012 462.511 267.848 461.777 267.848 460.946C267.848 460.116 268.012 459.382 268.338 458.743C268.664 458.105 269.123 457.61 269.713 457.26C270.304 456.905 270.985 456.727 271.758 456.727C272.353 456.727 272.869 456.84 273.306 457.066C273.748 457.291 274.105 457.627 274.379 458.074V456.9ZM272.075 463.366C272.536 463.366 272.939 463.267 273.284 463.07C273.635 462.869 273.904 462.586 274.091 462.221C274.283 461.856 274.379 461.431 274.379 460.946C274.379 460.462 274.283 460.037 274.091 459.672C273.904 459.307 273.635 459.026 273.284 458.83C272.939 458.628 272.536 458.527 272.075 458.527C271.609 458.527 271.201 458.628 270.851 458.83C270.505 459.026 270.236 459.307 270.044 459.672C269.857 460.037 269.764 460.462 269.764 460.946C269.764 461.431 269.86 461.856 270.052 462.221C270.244 462.586 270.512 462.869 270.858 463.07C271.208 463.267 271.614 463.366 272.075 463.366ZM284.007 456.9H286.167L283.287 465H282.79V469.392H280.889V465H280.392L277.519 456.9H279.679L281.688 463.2H281.991L284.007 456.9ZM287.413 465V456.9H289.314V457.85C289.463 457.486 289.676 457.21 289.955 457.022C290.233 456.83 290.559 456.734 290.934 456.734C291.308 456.734 291.637 456.835 291.92 457.037C292.208 457.238 292.436 457.529 292.604 457.908C292.811 457.514 293.07 457.222 293.382 457.03C293.699 456.833 294.08 456.734 294.527 456.734C295.026 456.734 295.453 456.842 295.808 457.058C296.163 457.274 296.435 457.589 296.622 458.002C296.809 458.41 296.903 458.902 296.903 459.478V465H295.002V459.564C295.002 459.233 294.925 458.981 294.771 458.808C294.623 458.63 294.402 458.542 294.109 458.542C293.821 458.542 293.591 458.633 293.418 458.815C293.25 458.998 293.137 459.29 293.079 459.694V465H291.236V459.564C291.236 459.238 291.162 458.986 291.013 458.808C290.864 458.63 290.651 458.542 290.372 458.542C289.763 458.542 289.41 458.926 289.314 459.694V465H287.413ZM306.803 461.508H300.158C300.22 461.926 300.362 462.286 300.583 462.588C300.803 462.886 301.089 463.114 301.439 463.272C301.79 463.43 302.191 463.51 302.642 463.51C303.141 463.51 303.561 463.409 303.902 463.207C304.243 463.001 304.49 462.708 304.643 462.329H306.731C306.535 462.938 306.244 463.457 305.86 463.884C305.481 464.306 305.02 464.626 304.478 464.842C303.935 465.058 303.331 465.166 302.663 465.166C301.795 465.166 301.034 464.993 300.381 464.647C299.728 464.297 299.222 463.807 298.862 463.178C298.507 462.545 298.329 461.82 298.329 461.004C298.329 460.159 298.516 459.413 298.891 458.765C299.265 458.112 299.779 457.608 300.431 457.253C301.089 456.898 301.826 456.72 302.642 456.72C303.477 456.72 304.209 456.905 304.838 457.274C305.467 457.644 305.951 458.155 306.292 458.808C306.633 459.456 306.803 460.19 306.803 461.011V461.508ZM304.903 460.032C304.807 459.691 304.655 459.396 304.449 459.146C304.243 458.897 303.986 458.705 303.679 458.57C303.371 458.436 303.021 458.369 302.627 458.369C302.234 458.369 301.876 458.436 301.555 458.57C301.238 458.7 300.967 458.89 300.741 459.139C300.52 459.389 300.357 459.686 300.251 460.032H304.903ZM308.226 465V456.907H310.126V458.146C310.261 457.843 310.458 457.586 310.717 457.375C310.981 457.164 311.293 457.006 311.653 456.9C312.018 456.79 312.418 456.734 312.855 456.734C313.57 456.734 314.19 456.869 314.713 457.138C315.241 457.406 315.644 457.79 315.922 458.29C316.201 458.789 316.34 459.379 316.34 460.061V465H314.439V460.558C314.439 460.135 314.362 459.773 314.209 459.47C314.06 459.168 313.834 458.938 313.532 458.779C313.23 458.621 312.86 458.542 312.423 458.542C312.015 458.542 311.643 458.616 311.307 458.765C310.976 458.914 310.705 459.149 310.494 459.47C310.282 459.787 310.16 460.19 310.126 460.68V465H308.226ZM322.89 465H320.989V458.7H317.77V456.9H320.989V452.45H322.89V456.9H326.108V458.7H322.89V465Z" fill="black"/>
<path d="M95.5 408.5H441" stroke="white"/>
<circle cx="140.5" cy="186.5" r="22.5" fill="#928408"/>
<path d="M133.375 180H150L147.889 186H131L133.375 180Z" fill="white"/>
<path d="M134.625 189H153L150.667 195H132L134.625 189Z" fill="white"/>
<path d="M191.232 170.018L189.94 170.783C189.699 170.364 189.469 170.09 189.25 169.963C189.022 169.817 188.728 169.744 188.368 169.744C187.926 169.744 187.559 169.869 187.268 170.12C186.976 170.366 186.83 170.676 186.83 171.05C186.83 171.565 187.213 171.979 187.979 172.294L189.031 172.725C189.888 173.071 190.515 173.495 190.911 173.996C191.308 174.493 191.506 175.104 191.506 175.828C191.506 176.799 191.182 177.601 190.535 178.234C189.883 178.872 189.075 179.191 188.108 179.191C187.192 179.191 186.436 178.92 185.839 178.378C185.251 177.836 184.884 177.072 184.738 176.088L186.352 175.732C186.424 176.352 186.552 176.781 186.734 177.018C187.062 177.473 187.541 177.701 188.17 177.701C188.667 177.701 189.079 177.535 189.407 177.202C189.735 176.869 189.899 176.448 189.899 175.938C189.899 175.732 189.87 175.546 189.811 175.377C189.756 175.204 189.667 175.047 189.544 174.905C189.425 174.759 189.271 174.625 189.079 174.502C188.888 174.374 188.66 174.254 188.396 174.14L187.377 173.716C185.932 173.105 185.21 172.212 185.21 171.036C185.21 170.243 185.513 169.58 186.119 169.047C186.725 168.509 187.479 168.24 188.382 168.24C189.599 168.24 190.549 168.833 191.232 170.018ZM199.196 176.033H194.425C194.466 176.58 194.644 177.015 194.958 177.339C195.272 177.658 195.676 177.817 196.168 177.817C196.551 177.817 196.868 177.726 197.118 177.544C197.364 177.362 197.645 177.024 197.959 176.532L199.258 177.257C199.057 177.599 198.845 177.893 198.622 178.139C198.399 178.38 198.16 178.581 197.904 178.74C197.649 178.895 197.373 179.009 197.077 179.082C196.781 179.155 196.46 179.191 196.113 179.191C195.12 179.191 194.322 178.872 193.721 178.234C193.119 177.592 192.818 176.74 192.818 175.678C192.818 174.625 193.11 173.773 193.693 173.121C194.281 172.479 195.061 172.157 196.031 172.157C197.011 172.157 197.786 172.469 198.355 173.094C198.921 173.714 199.203 174.573 199.203 175.671L199.196 176.033ZM197.617 174.775C197.403 173.955 196.886 173.545 196.065 173.545C195.879 173.545 195.703 173.575 195.539 173.634C195.375 173.688 195.225 173.771 195.088 173.88C194.956 173.985 194.842 174.112 194.746 174.263C194.65 174.413 194.577 174.584 194.527 174.775H197.617ZM200.885 172.342H202.43V172.957C202.967 172.424 203.574 172.157 204.248 172.157C205.023 172.157 205.627 172.401 206.06 172.889C206.433 173.303 206.62 173.98 206.62 174.919V179H205.075V175.281C205.075 174.625 204.984 174.172 204.802 173.921C204.624 173.666 204.3 173.538 203.831 173.538C203.321 173.538 202.958 173.707 202.744 174.044C202.535 174.377 202.43 174.958 202.43 175.787V179H200.885V172.342ZM213.477 167.454H215.021V179H213.477V178.303C212.87 178.895 212.185 179.191 211.419 179.191C210.507 179.191 209.751 178.859 209.149 178.193C208.552 177.514 208.254 176.667 208.254 175.65C208.254 174.657 208.552 173.827 209.149 173.162C209.742 172.492 210.487 172.157 211.385 172.157C212.164 172.157 212.861 172.476 213.477 173.114V167.454ZM209.826 175.65C209.826 176.288 209.997 176.808 210.339 177.209C210.69 177.615 211.132 177.817 211.665 177.817C212.235 177.817 212.695 177.621 213.046 177.229C213.397 176.824 213.572 176.309 213.572 175.685C213.572 175.06 213.397 174.545 213.046 174.14C212.695 173.743 212.239 173.545 211.679 173.545C211.15 173.545 210.708 173.745 210.353 174.146C210.002 174.552 209.826 175.053 209.826 175.65ZM222.876 173.777V179H221.331V173.777H220.784V172.342H221.331V169.771C221.331 168.933 221.477 168.34 221.769 167.994C222.17 167.511 222.753 167.27 223.519 167.27C223.792 167.27 224.136 167.349 224.551 167.509V169.081L224.394 168.999C224.061 168.83 223.787 168.746 223.573 168.746C223.3 168.746 223.115 168.844 223.02 169.04C222.924 169.231 222.876 169.601 222.876 170.147V172.342H224.551V173.777H222.876ZM225.439 172.342H226.978V172.937C227.26 172.64 227.511 172.438 227.729 172.328C227.953 172.214 228.217 172.157 228.522 172.157C228.928 172.157 229.352 172.289 229.794 172.554L229.09 173.962C228.798 173.752 228.513 173.647 228.235 173.647C227.397 173.647 226.978 174.281 226.978 175.548V179H225.439V172.342ZM230.238 175.623C230.238 174.661 230.582 173.843 231.271 173.169C231.959 172.494 232.797 172.157 233.786 172.157C234.78 172.157 235.623 172.497 236.315 173.176C236.999 173.855 237.341 174.689 237.341 175.678C237.341 176.676 236.997 177.512 236.309 178.187C235.616 178.856 234.766 179.191 233.759 179.191C232.761 179.191 231.924 178.85 231.25 178.166C230.576 177.492 230.238 176.644 230.238 175.623ZM231.811 175.65C231.811 176.316 231.988 176.842 232.344 177.229C232.708 177.621 233.189 177.817 233.786 177.817C234.388 177.817 234.868 177.624 235.229 177.236C235.589 176.849 235.769 176.332 235.769 175.685C235.769 175.037 235.589 174.52 235.229 174.133C234.864 173.741 234.383 173.545 233.786 173.545C233.198 173.545 232.722 173.741 232.357 174.133C231.993 174.525 231.811 175.031 231.811 175.65ZM238.975 172.342H240.513V172.957C240.809 172.647 241.062 172.438 241.271 172.328C241.495 172.214 241.775 172.157 242.112 172.157C242.864 172.157 243.459 172.485 243.896 173.142C244.38 172.485 245.034 172.157 245.858 172.157C247.358 172.157 248.107 173.066 248.107 174.885V179H246.562V175.302C246.562 174.664 246.485 174.213 246.33 173.948C246.171 173.679 245.909 173.545 245.544 173.545C245.12 173.545 244.81 173.704 244.614 174.023C244.423 174.342 244.327 174.855 244.327 175.562V179H242.782V175.322C242.782 174.137 242.44 173.545 241.757 173.545C241.324 173.545 241.007 173.707 240.807 174.03C240.611 174.354 240.513 174.864 240.513 175.562V179H238.975V172.342Z" fill="white"/>
<path d="M191.232 254.018L189.94 254.783C189.699 254.364 189.469 254.09 189.25 253.963C189.022 253.817 188.728 253.744 188.368 253.744C187.926 253.744 187.559 253.869 187.268 254.12C186.976 254.366 186.83 254.676 186.83 255.05C186.83 255.565 187.213 255.979 187.979 256.294L189.031 256.725C189.888 257.071 190.515 257.495 190.911 257.996C191.308 258.493 191.506 259.104 191.506 259.828C191.506 260.799 191.182 261.601 190.535 262.234C189.883 262.872 189.075 263.191 188.108 263.191C187.192 263.191 186.436 262.92 185.839 262.378C185.251 261.836 184.884 261.072 184.738 260.088L186.352 259.732C186.424 260.352 186.552 260.781 186.734 261.018C187.062 261.473 187.541 261.701 188.17 261.701C188.667 261.701 189.079 261.535 189.407 261.202C189.735 260.869 189.899 260.448 189.899 259.938C189.899 259.732 189.87 259.546 189.811 259.377C189.756 259.204 189.667 259.047 189.544 258.905C189.425 258.759 189.271 258.625 189.079 258.502C188.888 258.374 188.66 258.254 188.396 258.14L187.377 257.716C185.932 257.105 185.21 256.212 185.21 255.036C185.21 254.243 185.513 253.58 186.119 253.047C186.725 252.509 187.479 252.24 188.382 252.24C189.599 252.24 190.549 252.833 191.232 254.018ZM199.196 260.033H194.425C194.466 260.58 194.644 261.015 194.958 261.339C195.272 261.658 195.676 261.817 196.168 261.817C196.551 261.817 196.868 261.726 197.118 261.544C197.364 261.362 197.645 261.024 197.959 260.532L199.258 261.257C199.057 261.599 198.845 261.893 198.622 262.139C198.399 262.38 198.16 262.581 197.904 262.74C197.649 262.895 197.373 263.009 197.077 263.082C196.781 263.155 196.46 263.191 196.113 263.191C195.12 263.191 194.322 262.872 193.721 262.234C193.119 261.592 192.818 260.74 192.818 259.678C192.818 258.625 193.11 257.773 193.693 257.121C194.281 256.479 195.061 256.157 196.031 256.157C197.011 256.157 197.786 256.469 198.355 257.094C198.921 257.714 199.203 258.573 199.203 259.671L199.196 260.033ZM197.617 258.775C197.403 257.955 196.886 257.545 196.065 257.545C195.879 257.545 195.703 257.575 195.539 257.634C195.375 257.688 195.225 257.771 195.088 257.88C194.956 257.985 194.842 258.112 194.746 258.263C194.65 258.413 194.577 258.584 194.527 258.775H197.617ZM200.885 256.342H202.43V256.957C202.967 256.424 203.574 256.157 204.248 256.157C205.023 256.157 205.627 256.401 206.06 256.889C206.433 257.303 206.62 257.98 206.62 258.919V263H205.075V259.281C205.075 258.625 204.984 258.172 204.802 257.921C204.624 257.666 204.3 257.538 203.831 257.538C203.321 257.538 202.958 257.707 202.744 258.044C202.535 258.377 202.43 258.958 202.43 259.787V263H200.885V256.342ZM213.477 251.454H215.021V263H213.477V262.303C212.87 262.895 212.185 263.191 211.419 263.191C210.507 263.191 209.751 262.859 209.149 262.193C208.552 261.514 208.254 260.667 208.254 259.65C208.254 258.657 208.552 257.827 209.149 257.162C209.742 256.492 210.487 256.157 211.385 256.157C212.164 256.157 212.861 256.476 213.477 257.114V251.454ZM209.826 259.65C209.826 260.288 209.997 260.808 210.339 261.209C210.69 261.615 211.132 261.817 211.665 261.817C212.235 261.817 212.695 261.621 213.046 261.229C213.397 260.824 213.572 260.309 213.572 259.685C213.572 259.06 213.397 258.545 213.046 258.14C212.695 257.743 212.239 257.545 211.679 257.545C211.15 257.545 210.708 257.745 210.353 258.146C210.002 258.552 209.826 259.053 209.826 259.65ZM222.869 257.777V263H221.331V257.777H220.675V256.342H221.331V253.901H222.869V256.342H224.065V257.777H222.869ZM224.893 259.623C224.893 258.661 225.237 257.843 225.925 257.169C226.613 256.494 227.451 256.157 228.44 256.157C229.434 256.157 230.277 256.497 230.97 257.176C231.653 257.855 231.995 258.689 231.995 259.678C231.995 260.676 231.651 261.512 230.963 262.187C230.27 262.856 229.42 263.191 228.413 263.191C227.415 263.191 226.579 262.85 225.904 262.166C225.23 261.492 224.893 260.644 224.893 259.623ZM226.465 259.65C226.465 260.316 226.643 260.842 226.998 261.229C227.363 261.621 227.843 261.817 228.44 261.817C229.042 261.817 229.523 261.624 229.883 261.236C230.243 260.849 230.423 260.332 230.423 259.685C230.423 259.037 230.243 258.52 229.883 258.133C229.518 257.741 229.037 257.545 228.44 257.545C227.853 257.545 227.376 257.741 227.012 258.133C226.647 258.525 226.465 259.031 226.465 259.65Z" fill="white"/>
<path d="M191.465 339.437H186.946L185.771 342H184.055L189.277 330.782L194.315 342H192.572L191.465 339.437ZM190.815 337.939L189.25 334.351L187.609 337.939H190.815ZM195.348 335.342H196.886V335.957C197.182 335.647 197.435 335.438 197.645 335.328C197.868 335.214 198.148 335.157 198.485 335.157C199.237 335.157 199.832 335.485 200.27 336.142C200.753 335.485 201.407 335.157 202.231 335.157C203.731 335.157 204.48 336.066 204.48 337.885V342H202.936V338.302C202.936 337.664 202.858 337.213 202.703 336.948C202.544 336.679 202.282 336.545 201.917 336.545C201.493 336.545 201.183 336.704 200.987 337.023C200.796 337.342 200.7 337.855 200.7 338.562V342H199.155V338.322C199.155 337.137 198.813 336.545 198.13 336.545C197.697 336.545 197.38 336.707 197.18 337.03C196.984 337.354 196.886 337.864 196.886 338.562V342H195.348V335.342ZM206.107 338.623C206.107 337.661 206.451 336.843 207.14 336.169C207.828 335.494 208.666 335.157 209.655 335.157C210.649 335.157 211.492 335.497 212.185 336.176C212.868 336.855 213.21 337.689 213.21 338.678C213.21 339.676 212.866 340.512 212.178 341.187C211.485 341.856 210.635 342.191 209.628 342.191C208.63 342.191 207.794 341.85 207.119 341.166C206.445 340.492 206.107 339.644 206.107 338.623ZM207.68 338.65C207.68 339.316 207.857 339.842 208.213 340.229C208.577 340.621 209.058 340.817 209.655 340.817C210.257 340.817 210.738 340.624 211.098 340.236C211.458 339.849 211.638 339.332 211.638 338.685C211.638 338.037 211.458 337.52 211.098 337.133C210.733 336.741 210.252 336.545 209.655 336.545C209.067 336.545 208.591 336.741 208.227 337.133C207.862 337.525 207.68 338.031 207.68 338.65ZM216.382 335.342V339.163C216.382 340.266 216.817 340.817 217.688 340.817C218.558 340.817 218.993 340.266 218.993 339.163V335.342H220.531V339.197C220.531 339.73 220.465 340.191 220.333 340.578C220.205 340.924 219.984 341.237 219.67 341.515C219.15 341.966 218.49 342.191 217.688 342.191C216.89 342.191 216.231 341.966 215.712 341.515C215.393 341.237 215.167 340.924 215.035 340.578C214.908 340.268 214.844 339.808 214.844 339.197V335.342H216.382ZM222.473 335.342H224.018V335.957C224.555 335.424 225.161 335.157 225.836 335.157C226.611 335.157 227.215 335.401 227.647 335.889C228.021 336.303 228.208 336.98 228.208 337.919V342H226.663V338.281C226.663 337.625 226.572 337.172 226.39 336.921C226.212 336.666 225.888 336.538 225.419 336.538C224.909 336.538 224.546 336.707 224.332 337.044C224.122 337.377 224.018 337.958 224.018 338.787V342H222.473V335.342ZM231.742 336.777V342H230.204V336.777H229.548V335.342H230.204V332.901H231.742V335.342H232.938V336.777H231.742Z" fill="white"/>
<path d="M194.562 190.848L187.6 199.142H194.642V201H184.936V199.38L191.898 191.086H184.965V189.228H194.562V190.848ZM202.748 192.9H204.634V201H202.748V199.819C202.474 200.266 202.117 200.602 201.675 200.827C201.238 201.053 200.722 201.166 200.127 201.166C199.354 201.166 198.673 200.99 198.082 200.64C197.492 200.285 197.034 199.788 196.707 199.15C196.381 198.511 196.218 197.777 196.218 196.946C196.218 196.116 196.381 195.382 196.707 194.743C197.034 194.105 197.492 193.61 198.082 193.26C198.673 192.905 199.354 192.727 200.127 192.727C200.722 192.727 201.238 192.84 201.675 193.066C202.117 193.291 202.474 193.627 202.748 194.074V192.9ZM200.444 199.366C200.905 199.366 201.308 199.267 201.654 199.07C202.004 198.869 202.273 198.586 202.46 198.221C202.652 197.856 202.748 197.431 202.748 196.946C202.748 196.462 202.652 196.037 202.46 195.672C202.273 195.307 202.004 195.026 201.654 194.83C201.308 194.628 200.905 194.527 200.444 194.527C199.978 194.527 199.57 194.628 199.22 194.83C198.874 195.026 198.606 195.307 198.414 195.672C198.226 196.037 198.133 196.462 198.133 196.946C198.133 197.431 198.229 197.856 198.421 198.221C198.613 198.586 198.882 198.869 199.227 199.07C199.578 199.267 199.983 199.366 200.444 199.366ZM206.22 201V192.9H208.121V193.85C208.269 193.486 208.483 193.21 208.761 193.022C209.04 192.83 209.366 192.734 209.741 192.734C210.115 192.734 210.444 192.835 210.727 193.037C211.015 193.238 211.243 193.529 211.411 193.908C211.617 193.514 211.877 193.222 212.189 193.03C212.505 192.833 212.887 192.734 213.333 192.734C213.833 192.734 214.26 192.842 214.615 193.058C214.97 193.274 215.241 193.589 215.429 194.002C215.616 194.41 215.709 194.902 215.709 195.478V201H213.809V195.564C213.809 195.233 213.732 194.981 213.578 194.808C213.429 194.63 213.209 194.542 212.916 194.542C212.628 194.542 212.397 194.633 212.225 194.815C212.057 194.998 211.944 195.29 211.886 195.694V201H210.043V195.564C210.043 195.238 209.969 194.986 209.82 194.808C209.671 194.63 209.457 194.542 209.179 194.542C208.569 194.542 208.217 194.926 208.121 195.694V201H206.22ZM221.787 192.742C222.564 192.742 223.248 192.917 223.839 193.267C224.434 193.618 224.895 194.112 225.221 194.75C225.548 195.389 225.711 196.126 225.711 196.961C225.711 197.796 225.548 198.533 225.221 199.171C224.895 199.81 224.434 200.304 223.839 200.654C223.248 201.005 222.564 201.18 221.787 201.18C221.201 201.18 220.69 201.074 220.253 200.863C219.821 200.652 219.464 200.338 219.18 199.92V205.392H217.294V192.907H219.18V194.002C219.464 193.584 219.821 193.27 220.253 193.058C220.69 192.847 221.201 192.742 221.787 192.742ZM221.484 199.38C221.945 199.38 222.351 199.282 222.701 199.085C223.052 198.883 223.32 198.6 223.508 198.235C223.7 197.87 223.796 197.446 223.796 196.961C223.796 196.476 223.7 196.051 223.508 195.686C223.316 195.322 223.044 195.041 222.694 194.844C222.348 194.642 221.945 194.542 221.484 194.542C221.024 194.542 220.618 194.642 220.268 194.844C219.922 195.041 219.653 195.322 219.461 195.686C219.274 196.051 219.18 196.476 219.18 196.961C219.18 197.446 219.274 197.87 219.461 198.235C219.653 198.6 219.922 198.883 220.268 199.085C220.618 199.282 221.024 199.38 221.484 199.38ZM238.766 192.9H240.652V201H238.766V199.819C238.492 200.266 238.134 200.602 237.693 200.827C237.256 201.053 236.74 201.166 236.145 201.166C235.372 201.166 234.69 200.99 234.1 200.64C233.51 200.285 233.051 199.788 232.725 199.15C232.398 198.511 232.235 197.777 232.235 196.946C232.235 196.116 232.398 195.382 232.725 194.743C233.051 194.105 233.51 193.61 234.1 193.26C234.69 192.905 235.372 192.727 236.145 192.727C236.74 192.727 237.256 192.84 237.693 193.066C238.134 193.291 238.492 193.627 238.766 194.074V192.9ZM236.462 199.366C236.922 199.366 237.326 199.267 237.671 199.07C238.022 198.869 238.29 198.586 238.478 198.221C238.67 197.856 238.766 197.431 238.766 196.946C238.766 196.462 238.67 196.037 238.478 195.672C238.29 195.307 238.022 195.026 237.671 194.83C237.326 194.628 236.922 194.527 236.462 194.527C235.996 194.527 235.588 194.628 235.238 194.83C234.892 195.026 234.623 195.307 234.431 195.672C234.244 196.037 234.15 196.462 234.15 196.946C234.15 197.431 234.246 197.856 234.438 198.221C234.63 198.586 234.899 198.869 235.245 199.07C235.595 199.267 236.001 199.366 236.462 199.366ZM246.349 201.166C245.513 201.166 244.772 200.988 244.124 200.633C243.476 200.278 242.972 199.781 242.612 199.142C242.257 198.499 242.079 197.767 242.079 196.946C242.079 196.121 242.257 195.389 242.612 194.75C242.972 194.112 243.476 193.615 244.124 193.26C244.772 192.905 245.513 192.727 246.349 192.727C247.073 192.727 247.729 192.864 248.314 193.138C248.9 193.406 249.375 193.788 249.74 194.282C250.109 194.772 250.342 195.343 250.438 195.996H248.343C248.266 195.694 248.134 195.432 247.947 195.211C247.76 194.99 247.529 194.822 247.256 194.707C246.982 194.587 246.68 194.527 246.349 194.527C245.878 194.527 245.465 194.628 245.11 194.83C244.755 195.026 244.479 195.307 244.282 195.672C244.09 196.037 243.994 196.462 243.994 196.946C243.994 197.431 244.09 197.856 244.282 198.221C244.479 198.586 244.755 198.869 245.11 199.07C245.465 199.267 245.878 199.366 246.349 199.366C246.685 199.366 246.989 199.306 247.263 199.186C247.537 199.066 247.767 198.893 247.954 198.667C248.141 198.442 248.273 198.175 248.35 197.868H250.438C250.347 198.526 250.117 199.104 249.747 199.603C249.382 200.098 248.907 200.482 248.321 200.755C247.736 201.029 247.078 201.166 246.349 201.166ZM255.981 201.166C255.146 201.166 254.405 200.988 253.757 200.633C253.109 200.278 252.605 199.781 252.245 199.142C251.889 198.499 251.712 197.767 251.712 196.946C251.712 196.121 251.889 195.389 252.245 194.75C252.605 194.112 253.109 193.615 253.757 193.26C254.405 192.905 255.146 192.727 255.981 192.727C256.706 192.727 257.361 192.864 257.947 193.138C258.533 193.406 259.008 193.788 259.373 194.282C259.742 194.772 259.975 195.343 260.071 195.996H257.976C257.899 195.694 257.767 195.432 257.58 195.211C257.393 194.99 257.162 194.822 256.889 194.707C256.615 194.587 256.313 194.527 255.981 194.527C255.511 194.527 255.098 194.628 254.743 194.83C254.388 195.026 254.112 195.307 253.915 195.672C253.723 196.037 253.627 196.462 253.627 196.946C253.627 197.431 253.723 197.856 253.915 198.221C254.112 198.586 254.388 198.869 254.743 199.07C255.098 199.267 255.511 199.366 255.981 199.366C256.317 199.366 256.622 199.306 256.896 199.186C257.169 199.066 257.4 198.893 257.587 198.667C257.774 198.442 257.906 198.175 257.983 197.868H260.071C259.98 198.526 259.749 199.104 259.38 199.603C259.015 200.098 258.54 200.482 257.954 200.755C257.369 201.029 256.711 201.166 255.981 201.166ZM265.571 201.166C264.745 201.166 264.011 200.988 263.368 200.633C262.729 200.278 262.233 199.781 261.877 199.142C261.522 198.504 261.345 197.772 261.345 196.946C261.345 196.116 261.522 195.382 261.877 194.743C262.233 194.105 262.729 193.608 263.368 193.253C264.006 192.898 264.741 192.72 265.571 192.72C266.397 192.72 267.129 192.898 267.767 193.253C268.405 193.608 268.902 194.107 269.257 194.75C269.613 195.389 269.79 196.121 269.79 196.946C269.79 197.772 269.613 198.504 269.257 199.142C268.902 199.781 268.405 200.278 267.767 200.633C267.129 200.988 266.397 201.166 265.571 201.166ZM265.571 199.366C266.032 199.366 266.435 199.267 266.781 199.07C267.131 198.869 267.4 198.586 267.587 198.221C267.779 197.856 267.875 197.431 267.875 196.946C267.875 196.462 267.779 196.037 267.587 195.672C267.4 195.302 267.131 195.019 266.781 194.822C266.435 194.621 266.032 194.52 265.571 194.52C265.11 194.52 264.705 194.621 264.354 194.822C264.004 195.019 263.733 195.302 263.541 195.672C263.353 196.037 263.26 196.462 263.26 196.946C263.26 197.431 263.353 197.856 263.541 198.221C263.733 198.586 264.004 198.869 264.354 199.07C264.705 199.267 265.11 199.366 265.571 199.366ZM274.968 201.166C274.214 201.166 273.554 201.024 272.988 200.741C272.421 200.453 271.984 200.045 271.677 199.517C271.375 198.989 271.224 198.374 271.224 197.674V192.9H273.124V197.371C273.124 198.019 273.28 198.516 273.592 198.862C273.909 199.202 274.368 199.373 274.968 199.373C275.568 199.373 276.024 199.202 276.336 198.862C276.652 198.516 276.811 198.019 276.811 197.371V192.9H278.712V197.674C278.712 198.374 278.558 198.989 278.251 199.517C277.944 200.045 277.507 200.453 276.94 200.741C276.379 201.024 275.721 201.166 274.968 201.166ZM280.294 201V192.907H282.195V194.146C282.329 193.843 282.526 193.586 282.785 193.375C283.049 193.164 283.361 193.006 283.721 192.9C284.086 192.79 284.487 192.734 284.924 192.734C285.639 192.734 286.258 192.869 286.781 193.138C287.309 193.406 287.712 193.79 287.991 194.29C288.269 194.789 288.408 195.379 288.408 196.061V201H286.508V196.558C286.508 196.135 286.431 195.773 286.277 195.47C286.128 195.168 285.903 194.938 285.6 194.779C285.298 194.621 284.928 194.542 284.492 194.542C284.084 194.542 283.712 194.616 283.376 194.765C283.044 194.914 282.773 195.149 282.562 195.47C282.351 195.787 282.228 196.19 282.195 196.68V201H280.294ZM294.958 201H293.057V194.7H289.839V192.9H293.057V188.45H294.958V192.9H298.176V194.7H294.958V201ZM301.438 203.383H299.393L301.539 200.978V198.084H303.44V201.043L301.438 203.383ZM316.104 201.151C315.106 201.151 314.22 200.99 313.447 200.669C312.674 200.347 312.074 199.896 311.647 199.315C311.22 198.734 311.006 198.07 311.006 197.321H313.166C313.166 197.748 313.277 198.11 313.498 198.408C313.723 198.706 314.05 198.931 314.477 199.085C314.909 199.238 315.432 199.315 316.046 199.315C316.656 199.315 317.179 199.248 317.616 199.114C318.058 198.979 318.394 198.785 318.624 198.53C318.854 198.271 318.97 197.964 318.97 197.609C318.97 197.258 318.869 196.975 318.667 196.759C318.466 196.538 318.137 196.363 317.681 196.234C317.225 196.104 316.594 196.001 315.787 195.924C314.731 195.823 313.87 195.638 313.202 195.37C312.535 195.101 312.041 194.736 311.719 194.275C311.398 193.81 311.237 193.236 311.237 192.554C311.237 191.858 311.429 191.251 311.813 190.733C312.197 190.21 312.739 189.806 313.44 189.523C314.146 189.235 314.966 189.091 315.902 189.091C316.862 189.091 317.707 189.247 318.437 189.559C319.171 189.871 319.738 190.313 320.136 190.884C320.539 191.45 320.741 192.106 320.741 192.85H318.581C318.581 192.437 318.478 192.089 318.271 191.806C318.065 191.518 317.76 191.299 317.357 191.15C316.958 191.002 316.474 190.927 315.902 190.927C315.35 190.927 314.873 190.992 314.47 191.122C314.071 191.251 313.764 191.438 313.548 191.683C313.337 191.928 313.231 192.218 313.231 192.554C313.231 192.881 313.318 193.147 313.49 193.354C313.668 193.555 313.946 193.716 314.326 193.836C314.71 193.956 315.223 194.042 315.866 194.095C317.038 194.196 317.998 194.39 318.746 194.678C319.495 194.962 320.052 195.35 320.417 195.845C320.782 196.339 320.964 196.949 320.964 197.674C320.964 198.398 320.77 199.022 320.381 199.546C319.997 200.064 319.44 200.462 318.71 200.741C317.986 201.014 317.117 201.151 316.104 201.151ZM328.942 191.539H327.02V188.04H328.942V191.539ZM330.872 201H325.752V194.7H322.534V192.9H327.653V199.2H330.872V201ZM332.29 201V192.907H334.191V194.146C334.325 193.843 334.522 193.586 334.781 193.375C335.045 193.164 335.357 193.006 335.717 192.9C336.082 192.79 336.483 192.734 336.92 192.734C337.635 192.734 338.254 192.869 338.777 193.138C339.305 193.406 339.708 193.79 339.987 194.29C340.265 194.789 340.404 195.379 340.404 196.061V201H338.504V196.558C338.504 196.135 338.427 195.773 338.273 195.47C338.124 195.168 337.899 194.938 337.596 194.779C337.294 194.621 336.924 194.542 336.488 194.542C336.08 194.542 335.708 194.616 335.372 194.765C335.04 194.914 334.769 195.149 334.558 195.47C334.347 195.787 334.224 196.19 334.191 196.68V201H332.29ZM348.128 192.9H350.014V201.59C350.014 202.315 349.863 202.978 349.56 203.578C349.263 204.178 348.807 204.655 348.192 205.01C347.583 205.37 346.836 205.55 345.953 205.55C345.228 205.55 344.576 205.423 343.995 205.169C343.414 204.914 342.939 204.547 342.569 204.067C342.2 203.587 341.967 203.021 341.871 202.368H343.959C344.117 202.853 344.367 203.227 344.708 203.491C345.048 203.76 345.471 203.894 345.975 203.894C346.402 203.894 346.779 203.798 347.105 203.606C347.432 203.419 347.684 203.146 347.861 202.786C348.039 202.43 348.128 202.008 348.128 201.518V199.79C347.868 200.227 347.535 200.566 347.127 200.806C346.724 201.041 346.248 201.158 345.701 201.158C345.072 201.158 344.46 200.995 343.865 200.669C343.275 200.342 342.788 199.862 342.404 199.229C342.024 198.59 341.835 197.83 341.835 196.946C341.835 196.068 342.024 195.312 342.404 194.678C342.783 194.04 343.27 193.558 343.865 193.231C344.46 192.9 345.072 192.734 345.701 192.734C346.248 192.734 346.724 192.852 347.127 193.087C347.535 193.318 347.868 193.651 348.128 194.088V192.9ZM345.939 199.358C346.371 199.358 346.752 199.262 347.084 199.07C347.415 198.874 347.672 198.593 347.854 198.228C348.036 197.863 348.128 197.436 348.128 196.946C348.128 196.462 348.036 196.039 347.854 195.679C347.676 195.314 347.422 195.034 347.091 194.837C346.764 194.635 346.38 194.534 345.939 194.534C345.497 194.534 345.111 194.635 344.78 194.837C344.448 195.038 344.194 195.322 344.016 195.686C343.839 196.046 343.75 196.466 343.75 196.946C343.75 197.426 343.841 197.849 344.024 198.214C344.206 198.578 344.46 198.862 344.787 199.063C345.118 199.26 345.502 199.358 345.939 199.358ZM357.963 192.9H359.849V201H357.963V199.819C357.689 200.266 357.332 200.602 356.89 200.827C356.453 201.053 355.937 201.166 355.342 201.166C354.569 201.166 353.888 200.99 353.297 200.64C352.707 200.285 352.248 199.788 351.922 199.15C351.596 198.511 351.432 197.777 351.432 196.946C351.432 196.116 351.596 195.382 351.922 194.743C352.248 194.105 352.707 193.61 353.297 193.26C353.888 192.905 354.569 192.727 355.342 192.727C355.937 192.727 356.453 192.84 356.89 193.066C357.332 193.291 357.689 193.627 357.963 194.074V192.9ZM355.659 199.366C356.12 199.366 356.523 199.267 356.868 199.07C357.219 198.869 357.488 198.586 357.675 198.221C357.867 197.856 357.963 197.431 357.963 196.946C357.963 196.462 357.867 196.037 357.675 195.672C357.488 195.307 357.219 195.026 356.868 194.83C356.523 194.628 356.12 194.527 355.659 194.527C355.193 194.527 354.785 194.628 354.435 194.83C354.089 195.026 353.82 195.307 353.628 195.672C353.441 196.037 353.348 196.462 353.348 196.946C353.348 197.431 353.444 197.856 353.636 198.221C353.828 198.586 354.096 198.869 354.442 199.07C354.792 199.267 355.198 199.366 355.659 199.366ZM365.927 192.742C366.705 192.742 367.389 192.917 367.979 193.267C368.575 193.618 369.035 194.112 369.362 194.75C369.688 195.389 369.851 196.126 369.851 196.961C369.851 197.796 369.688 198.533 369.362 199.171C369.035 199.81 368.575 200.304 367.979 200.654C367.389 201.005 366.705 201.18 365.927 201.18C365.342 201.18 364.831 201.074 364.394 200.863C363.962 200.652 363.604 200.338 363.321 199.92V205.392H361.435V192.907H363.321V194.002C363.604 193.584 363.962 193.27 364.394 193.058C364.831 192.847 365.342 192.742 365.927 192.742ZM365.625 199.38C366.086 199.38 366.491 199.282 366.842 199.085C367.192 198.883 367.461 198.6 367.648 198.235C367.84 197.87 367.936 197.446 367.936 196.961C367.936 196.476 367.84 196.051 367.648 195.686C367.456 195.322 367.185 195.041 366.835 194.844C366.489 194.642 366.086 194.542 365.625 194.542C365.164 194.542 364.759 194.642 364.408 194.844C364.063 195.041 363.794 195.322 363.602 195.686C363.415 196.051 363.321 196.476 363.321 196.961C363.321 197.446 363.415 197.87 363.602 198.235C363.794 198.6 364.063 198.883 364.408 199.085C364.759 199.282 365.164 199.38 365.625 199.38ZM375.346 201.166C374.521 201.166 373.786 200.988 373.143 200.633C372.505 200.278 372.008 199.781 371.653 199.142C371.298 198.504 371.12 197.772 371.12 196.946C371.12 196.116 371.298 195.382 371.653 194.743C372.008 194.105 372.505 193.608 373.143 193.253C373.782 192.898 374.516 192.72 375.346 192.72C376.172 192.72 376.904 192.898 377.542 193.253C378.181 193.608 378.678 194.107 379.033 194.75C379.388 195.389 379.566 196.121 379.566 196.946C379.566 197.772 379.388 198.504 379.033 199.142C378.678 199.781 378.181 200.278 377.542 200.633C376.904 200.988 376.172 201.166 375.346 201.166ZM375.346 199.366C375.807 199.366 376.21 199.267 376.556 199.07C376.906 198.869 377.175 198.586 377.362 198.221C377.554 197.856 377.65 197.431 377.65 196.946C377.65 196.462 377.554 196.037 377.362 195.672C377.175 195.302 376.906 195.019 376.556 194.822C376.21 194.621 375.807 194.52 375.346 194.52C374.886 194.52 374.48 194.621 374.13 194.822C373.779 195.019 373.508 195.302 373.316 195.672C373.129 196.037 373.035 196.462 373.035 196.946C373.035 197.431 373.129 197.856 373.316 198.221C373.508 198.586 373.779 198.869 374.13 199.07C374.48 199.267 374.886 199.366 375.346 199.366ZM383.037 201V194.7H380.999V192.9H384.937V194.88C385.043 194.458 385.228 194.1 385.492 193.807C385.756 193.51 386.085 193.284 386.478 193.13C386.877 192.977 387.33 192.9 387.839 192.9H389.193V194.772H387.493C387.023 194.772 386.601 194.882 386.226 195.103C385.852 195.319 385.549 195.653 385.319 196.104C385.089 196.55 384.961 197.102 384.937 197.76V201H383.037ZM398.737 197.508H392.091C392.154 197.926 392.295 198.286 392.516 198.588C392.737 198.886 393.023 199.114 393.373 199.272C393.723 199.43 394.124 199.51 394.575 199.51C395.075 199.51 395.495 199.409 395.835 199.207C396.176 199.001 396.423 198.708 396.577 198.329H398.665C398.468 198.938 398.178 199.457 397.794 199.884C397.415 200.306 396.954 200.626 396.411 200.842C395.869 201.058 395.264 201.166 394.597 201.166C393.728 201.166 392.967 200.993 392.315 200.647C391.662 200.297 391.155 199.807 390.795 199.178C390.44 198.545 390.263 197.82 390.263 197.004C390.263 196.159 390.45 195.413 390.824 194.765C391.199 194.112 391.712 193.608 392.365 193.253C393.023 192.898 393.759 192.72 394.575 192.72C395.411 192.72 396.143 192.905 396.771 193.274C397.4 193.644 397.885 194.155 398.226 194.808C398.567 195.456 398.737 196.19 398.737 197.011V197.508ZM396.836 196.032C396.74 195.691 396.589 195.396 396.383 195.146C396.176 194.897 395.919 194.705 395.612 194.57C395.305 194.436 394.955 194.369 394.561 194.369C394.167 194.369 393.81 194.436 393.488 194.57C393.171 194.7 392.9 194.89 392.675 195.139C392.454 195.389 392.291 195.686 392.185 196.032H396.836Z" fill="white"/>
<path d="M184.936 285V273.228H189.58C190.751 273.228 191.802 273.478 192.734 273.977C193.665 274.476 194.392 275.172 194.915 276.065C195.443 276.958 195.707 277.97 195.707 279.103C195.707 280.231 195.443 281.244 194.915 282.142C194.392 283.034 193.665 283.735 192.734 284.244C191.802 284.748 190.751 285 189.58 285H184.936ZM189.58 283.128C190.386 283.128 191.102 282.96 191.726 282.624C192.354 282.283 192.842 281.808 193.187 281.198C193.538 280.584 193.713 279.881 193.713 279.089C193.713 278.302 193.538 277.606 193.187 277.001C192.842 276.396 192.357 275.928 191.733 275.597C191.109 275.266 190.391 275.1 189.58 275.1H186.866V283.128H189.58ZM203.504 276.9H205.39V285H203.504V283.819C203.23 284.266 202.873 284.602 202.431 284.827C201.994 285.053 201.478 285.166 200.883 285.166C200.11 285.166 199.429 284.99 198.838 284.64C198.248 284.285 197.789 283.788 197.463 283.15C197.137 282.511 196.973 281.777 196.973 280.946C196.973 280.116 197.137 279.382 197.463 278.743C197.789 278.105 198.248 277.61 198.838 277.26C199.429 276.905 200.11 276.727 200.883 276.727C201.478 276.727 201.994 276.84 202.431 277.066C202.873 277.291 203.23 277.627 203.504 278.074V276.9ZM201.2 283.366C201.661 283.366 202.064 283.267 202.409 283.07C202.76 282.869 203.029 282.586 203.216 282.221C203.408 281.856 203.504 281.431 203.504 280.946C203.504 280.462 203.408 280.037 203.216 279.672C203.029 279.307 202.76 279.026 202.409 278.83C202.064 278.628 201.661 278.527 201.2 278.527C200.734 278.527 200.326 278.628 199.976 278.83C199.63 279.026 199.361 279.307 199.169 279.672C198.982 280.037 198.889 280.462 198.889 280.946C198.889 281.431 198.985 281.856 199.177 282.221C199.369 282.586 199.637 282.869 199.983 283.07C200.333 283.267 200.739 283.366 201.2 283.366ZM206.976 285V276.907H208.876V278.146C209.011 277.843 209.208 277.586 209.467 277.375C209.731 277.164 210.043 277.006 210.403 276.9C210.768 276.79 211.168 276.734 211.605 276.734C212.32 276.734 212.94 276.869 213.463 277.138C213.991 277.406 214.394 277.79 214.672 278.29C214.951 278.789 215.09 279.379 215.09 280.061V285H213.189V280.558C213.189 280.135 213.112 279.773 212.959 279.47C212.81 279.168 212.584 278.938 212.282 278.779C211.98 278.621 211.61 278.542 211.173 278.542C210.765 278.542 210.393 278.616 210.057 278.765C209.726 278.914 209.455 279.149 209.244 279.47C209.032 279.787 208.91 280.19 208.876 280.68V285H206.976ZM224.995 281.508H218.349C218.412 281.926 218.553 282.286 218.774 282.588C218.995 282.886 219.28 283.114 219.631 283.272C219.981 283.43 220.382 283.51 220.833 283.51C221.332 283.51 221.752 283.409 222.093 283.207C222.434 283.001 222.681 282.708 222.835 282.329H224.923C224.726 282.938 224.436 283.457 224.052 283.884C223.672 284.306 223.212 284.626 222.669 284.842C222.127 285.058 221.522 285.166 220.855 285.166C219.986 285.166 219.225 284.993 218.572 284.647C217.92 284.297 217.413 283.807 217.053 283.178C216.698 282.545 216.52 281.82 216.52 281.004C216.52 280.159 216.708 279.413 217.082 278.765C217.456 278.112 217.97 277.608 218.623 277.253C219.28 276.898 220.017 276.72 220.833 276.72C221.668 276.72 222.4 276.905 223.029 277.274C223.658 277.644 224.143 278.155 224.484 278.808C224.824 279.456 224.995 280.19 224.995 281.011V281.508ZM223.094 280.032C222.998 279.691 222.847 279.396 222.64 279.146C222.434 278.897 222.177 278.705 221.87 278.57C221.563 278.436 221.212 278.369 220.819 278.369C220.425 278.369 220.068 278.436 219.746 278.57C219.429 278.7 219.158 278.89 218.932 279.139C218.712 279.389 218.548 279.686 218.443 280.032H223.094ZM238.045 276.9H239.931V285H238.045V283.819C237.771 284.266 237.414 284.602 236.972 284.827C236.535 285.053 236.019 285.166 235.424 285.166C234.651 285.166 233.97 284.99 233.379 284.64C232.789 284.285 232.33 283.788 232.004 283.15C231.678 282.511 231.514 281.777 231.514 280.946C231.514 280.116 231.678 279.382 232.004 278.743C232.33 278.105 232.789 277.61 233.379 277.26C233.97 276.905 234.651 276.727 235.424 276.727C236.019 276.727 236.535 276.84 236.972 277.066C237.414 277.291 237.771 277.627 238.045 278.074V276.9ZM235.741 283.366C236.202 283.366 236.605 283.267 236.95 283.07C237.301 282.869 237.57 282.586 237.757 282.221C237.949 281.856 238.045 281.431 238.045 280.946C238.045 280.462 237.949 280.037 237.757 279.672C237.57 279.307 237.301 279.026 236.95 278.83C236.605 278.628 236.202 278.527 235.741 278.527C235.275 278.527 234.867 278.628 234.517 278.83C234.171 279.026 233.902 279.307 233.71 279.672C233.523 280.037 233.43 280.462 233.43 280.946C233.43 281.431 233.526 281.856 233.718 282.221C233.91 282.586 234.178 282.869 234.524 283.07C234.874 283.267 235.28 283.366 235.741 283.366ZM245.261 285.166C244.507 285.166 243.847 285.024 243.281 284.741C242.714 284.453 242.277 284.045 241.97 283.517C241.668 282.989 241.517 282.374 241.517 281.674V276.9H243.417V281.371C243.417 282.019 243.573 282.516 243.885 282.862C244.202 283.202 244.661 283.373 245.261 283.373C245.861 283.373 246.317 283.202 246.629 282.862C246.945 282.516 247.104 282.019 247.104 281.371V276.9H249.005V281.674C249.005 282.374 248.851 282.989 248.544 283.517C248.237 284.045 247.8 284.453 247.233 284.741C246.672 285.024 246.014 285.166 245.261 285.166ZM254.482 285.166C253.748 285.166 253.09 285.053 252.509 284.827C251.933 284.597 251.47 284.268 251.12 283.841C250.774 283.414 250.573 282.91 250.515 282.329H252.603C252.694 282.732 252.901 283.039 253.222 283.25C253.544 283.457 253.976 283.56 254.518 283.56C254.84 283.56 255.125 283.526 255.375 283.459C255.625 283.387 255.819 283.284 255.958 283.15C256.097 283.01 256.167 282.845 256.167 282.653C256.167 282.461 256.093 282.305 255.944 282.185C255.8 282.065 255.629 281.978 255.433 281.926C255.241 281.873 255.017 281.825 254.763 281.782L253.381 281.558C252.853 281.472 252.401 281.323 252.027 281.112C251.653 280.896 251.367 280.627 251.17 280.306C250.973 279.979 250.875 279.61 250.875 279.197C250.875 278.707 251.014 278.275 251.293 277.901C251.571 277.526 251.965 277.236 252.473 277.03C252.982 276.823 253.57 276.72 254.237 276.72C254.919 276.72 255.531 276.828 256.073 277.044C256.616 277.255 257.053 277.56 257.384 277.958C257.72 278.357 257.919 278.825 257.981 279.362H255.893C255.812 279.036 255.622 278.782 255.325 278.599C255.032 278.417 254.66 278.326 254.209 278.326C253.925 278.326 253.678 278.362 253.467 278.434C253.261 278.501 253.1 278.599 252.985 278.729C252.874 278.858 252.819 279.007 252.819 279.175C252.819 279.377 252.908 279.547 253.085 279.686C253.263 279.821 253.517 279.917 253.849 279.974L255.497 280.255C256.361 280.404 257.012 280.673 257.449 281.062C257.89 281.45 258.111 281.954 258.111 282.574C258.111 283.092 257.962 283.548 257.665 283.942C257.367 284.33 256.945 284.633 256.397 284.849C255.85 285.06 255.212 285.166 254.482 285.166ZM264.583 285H262.682V278.7H259.464V276.9H262.682V272.45H264.583V276.9H267.801V278.7H264.583V285ZM277.536 281.508H270.89C270.953 281.926 271.094 282.286 271.315 282.588C271.536 282.886 271.821 283.114 272.172 283.272C272.522 283.43 272.923 283.51 273.374 283.51C273.873 283.51 274.293 283.409 274.634 283.207C274.975 283.001 275.222 282.708 275.376 282.329H277.464C277.267 282.938 276.977 283.457 276.593 283.884C276.213 284.306 275.753 284.626 275.21 284.842C274.668 285.058 274.063 285.166 273.396 285.166C272.527 285.166 271.766 284.993 271.113 284.647C270.461 284.297 269.954 283.807 269.594 283.178C269.239 282.545 269.061 281.82 269.061 281.004C269.061 280.159 269.249 279.413 269.623 278.765C269.997 278.112 270.511 277.608 271.164 277.253C271.821 276.898 272.558 276.72 273.374 276.72C274.209 276.72 274.941 276.905 275.57 277.274C276.199 277.644 276.684 278.155 277.025 278.808C277.365 279.456 277.536 280.19 277.536 281.011V281.508ZM275.635 280.032C275.539 279.691 275.388 279.396 275.181 279.146C274.975 278.897 274.718 278.705 274.411 278.57C274.104 278.436 273.753 278.369 273.36 278.369C272.966 278.369 272.609 278.436 272.287 278.57C271.97 278.7 271.699 278.89 271.473 279.139C271.253 279.389 271.089 279.686 270.984 280.032H275.635ZM278.958 285V276.907H280.859V278.146C280.993 277.843 281.19 277.586 281.449 277.375C281.713 277.164 282.025 277.006 282.385 276.9C282.75 276.79 283.151 276.734 283.588 276.734C284.303 276.734 284.922 276.869 285.445 277.138C285.973 277.406 286.376 277.79 286.655 278.29C286.933 278.789 287.072 279.379 287.072 280.061V285H285.172V280.558C285.172 280.135 285.095 279.773 284.941 279.47C284.792 279.168 284.567 278.938 284.264 278.779C283.962 278.621 283.592 278.542 283.156 278.542C282.748 278.542 282.376 278.616 282.04 278.765C281.708 278.914 281.437 279.149 281.226 279.47C281.015 279.787 280.892 280.19 280.859 280.68V285H278.958Z" fill="white"/>
<path d="M194.894 360.674C194.894 361.331 194.733 361.907 194.411 362.402C194.094 362.891 193.631 363.285 193.022 363.582C192.412 363.875 191.68 364.055 190.826 364.122V366.016H189.09V364.101C188.26 364.005 187.53 363.786 186.902 363.446C186.278 363.105 185.793 362.666 185.447 362.128C185.106 361.59 184.936 360.988 184.936 360.321H187.096C187.096 360.748 187.206 361.11 187.427 361.408C187.653 361.706 187.979 361.931 188.406 362.085C188.838 362.238 189.362 362.315 189.976 362.315C190.586 362.315 191.109 362.248 191.546 362.114C191.987 361.979 192.323 361.785 192.554 361.53C192.784 361.271 192.899 360.964 192.899 360.609C192.899 360.316 192.832 360.071 192.698 359.874C192.563 359.678 192.345 359.514 192.042 359.385C191.745 359.255 191.339 359.147 190.826 359.061V360.458H189.09V358.852C188.183 358.727 187.442 358.528 186.866 358.254C186.29 357.976 185.862 357.616 185.584 357.174C185.306 356.733 185.166 356.193 185.166 355.554C185.166 354.921 185.325 354.359 185.642 353.87C185.963 353.38 186.417 352.986 187.002 352.689C187.593 352.386 188.289 352.199 189.09 352.127V350.219H190.826V352.156C191.603 352.257 192.28 352.473 192.856 352.804C193.437 353.135 193.883 353.562 194.195 354.086C194.512 354.604 194.67 355.192 194.67 355.85H192.51C192.51 355.437 192.407 355.089 192.201 354.806C191.994 354.518 191.69 354.299 191.286 354.15C190.888 354.002 190.403 353.927 189.832 353.927C189.28 353.927 188.802 353.992 188.399 354.122C188.001 354.251 187.694 354.438 187.478 354.683C187.266 354.928 187.161 355.218 187.161 355.554C187.161 355.838 187.226 356.075 187.355 356.267C187.485 356.454 187.689 356.61 187.967 356.735C188.25 356.855 188.625 356.949 189.09 357.016V355.634H190.826V357.218C191.757 357.357 192.52 357.573 193.115 357.866C193.715 358.158 194.162 358.538 194.454 359.003C194.747 359.464 194.894 360.021 194.894 360.674ZM198.933 357.858H196.766L199.466 352.235H202.994V364H201.064V353.848H200.74L198.933 357.858ZM206.452 364V360.71L207.776 360.414C209.61 360.006 210.976 359.454 211.873 358.758C212.771 358.058 213.22 357.198 213.22 356.181C213.22 355.701 213.128 355.293 212.946 354.957C212.764 354.616 212.497 354.357 212.147 354.179C211.801 354.002 211.381 353.913 210.887 353.913C210.402 353.913 209.989 353.997 209.648 354.165C209.312 354.328 209.056 354.568 208.878 354.885C208.7 355.202 208.612 355.586 208.612 356.037H206.452C206.452 355.211 206.629 354.498 206.984 353.898C207.34 353.298 207.851 352.84 208.518 352.523C209.185 352.202 209.977 352.041 210.894 352.041C211.792 352.041 212.564 352.199 213.212 352.516C213.86 352.833 214.355 353.291 214.696 353.891C215.041 354.491 215.214 355.206 215.214 356.037C215.214 356.944 214.993 357.77 214.552 358.514C214.115 359.253 213.472 359.886 212.622 360.414C211.777 360.938 210.752 361.338 209.548 361.617L208.417 361.876V362.2L209.8 362.128H215.365V364H206.452ZM225.352 359.349H227.685V361.221H225.352V364H223.422V361.221H217.245V359.126L222.069 352.235H225.352V359.349ZM223.091 353.848L219.239 359.349H223.422V353.848H223.091ZM231.248 366.383H229.204L231.349 363.978V361.084H233.25V364.043L231.248 366.383ZM240.644 364.173C239.651 364.173 238.767 363.918 237.995 363.41C237.227 362.901 236.629 362.188 236.202 361.271C235.775 360.35 235.561 359.294 235.561 358.103C235.561 356.913 235.775 355.859 236.202 354.942C236.629 354.021 237.227 353.306 237.995 352.797C238.767 352.288 239.651 352.034 240.644 352.034C241.638 352.034 242.519 352.29 243.287 352.804C244.059 353.313 244.659 354.028 245.087 354.95C245.514 355.866 245.727 356.918 245.727 358.103C245.727 359.289 245.514 360.342 245.087 361.264C244.659 362.181 244.059 362.896 243.287 363.41C242.519 363.918 241.638 364.173 240.644 364.173ZM240.644 362.301C241.263 362.301 241.806 362.128 242.271 361.782C242.737 361.437 243.097 360.947 243.351 360.314C243.606 359.68 243.733 358.943 243.733 358.103C243.733 357.263 243.606 356.526 243.351 355.893C243.097 355.259 242.737 354.77 242.271 354.424C241.806 354.078 241.263 353.906 240.644 353.906C240.025 353.906 239.483 354.078 239.017 354.424C238.551 354.77 238.191 355.259 237.937 355.893C237.683 356.526 237.555 357.263 237.555 358.103C237.555 358.943 237.683 359.68 237.937 360.314C238.191 360.947 238.551 361.437 239.017 361.782C239.483 362.128 240.025 362.301 240.644 362.301ZM252.685 364.173C251.692 364.173 250.808 363.918 250.036 363.41C249.268 362.901 248.67 362.188 248.243 361.271C247.816 360.35 247.602 359.294 247.602 358.103C247.602 356.913 247.816 355.859 248.243 354.942C248.67 354.021 249.268 353.306 250.036 352.797C250.808 352.288 251.692 352.034 252.685 352.034C253.679 352.034 254.56 352.29 255.328 352.804C256.1 353.313 256.7 354.028 257.128 354.95C257.555 355.866 257.768 356.918 257.768 358.103C257.768 359.289 257.555 360.342 257.128 361.264C256.7 362.181 256.1 362.896 255.328 363.41C254.56 363.918 253.679 364.173 252.685 364.173ZM252.685 362.301C253.304 362.301 253.847 362.128 254.312 361.782C254.778 361.437 255.138 360.947 255.392 360.314C255.647 359.68 255.774 358.943 255.774 358.103C255.774 357.263 255.647 356.526 255.392 355.893C255.138 355.259 254.778 354.77 254.312 354.424C253.847 354.078 253.304 353.906 252.685 353.906C252.066 353.906 251.524 354.078 251.058 354.424C250.592 354.77 250.232 355.259 249.978 355.893C249.724 356.526 249.596 357.263 249.596 358.103C249.596 358.943 249.724 359.68 249.978 360.314C250.232 360.947 250.592 361.437 251.058 361.782C251.524 362.128 252.066 362.301 252.685 362.301ZM264.726 364.173C263.733 364.173 262.849 363.918 262.077 363.41C261.309 362.901 260.711 362.188 260.284 361.271C259.857 360.35 259.643 359.294 259.643 358.103C259.643 356.913 259.857 355.859 260.284 354.942C260.711 354.021 261.309 353.306 262.077 352.797C262.849 352.288 263.733 352.034 264.726 352.034C265.72 352.034 266.601 352.29 267.369 352.804C268.141 353.313 268.741 354.028 269.169 354.95C269.596 355.866 269.809 356.918 269.809 358.103C269.809 359.289 269.596 360.342 269.169 361.264C268.741 362.181 268.141 362.896 267.369 363.41C266.601 363.918 265.72 364.173 264.726 364.173ZM264.726 362.301C265.345 362.301 265.888 362.128 266.353 361.782C266.819 361.437 267.179 360.947 267.433 360.314C267.688 359.68 267.815 358.943 267.815 358.103C267.815 357.263 267.688 356.526 267.433 355.893C267.179 355.259 266.819 354.77 266.353 354.424C265.888 354.078 265.345 353.906 264.726 353.906C264.107 353.906 263.565 354.078 263.099 354.424C262.633 354.77 262.273 355.259 262.019 355.893C261.765 356.526 261.637 357.263 261.637 358.103C261.637 358.943 261.765 359.68 262.019 360.314C262.273 360.947 262.633 361.437 263.099 361.782C263.565 362.128 264.107 362.301 264.726 362.301Z" fill="white"/>
<g clip-path="url(#clip0_101_339)">
<path d="M141 292C152.046 292 161 283.046 161 272C161 260.954 152.046 252 141 252C129.954 252 121 260.954 121 272C121 283.046 129.954 292 141 292Z" fill="#627EEA"/>
<path d="M141.623 257V268.087L150.994 272.275L141.623 257Z" fill="white" fill-opacity="0.602"/>
<path d="M141.622 257L132.25 272.275L141.622 268.087V257Z" fill="white"/>
<path d="M141.623 279.461V286.994L151 274.021L141.623 279.461Z" fill="white" fill-opacity="0.602"/>
<path d="M141.622 286.994V279.459L132.25 274.021L141.622 286.994Z" fill="white"/>
<path d="M141.623 277.716L150.994 272.275L141.623 268.09V277.716Z" fill="white" fill-opacity="0.2"/>
<path d="M132.25 272.275L141.622 277.716V268.09L132.25 272.275Z" fill="white" fill-opacity="0.602"/>
</g>
<g clip-path="url(#clip1_101_339)">
<path d="M143 372C154.046 372 163 363.046 163 352C163 340.954 154.046 332 143 332C131.954 332 123 340.954 123 352C123 363.046 131.954 372 143 372Z" fill="#EA62E5"/>
</g>
<rect x="95.5" y="138.5" width="346" height="364" rx="11.5" stroke="white"/>
<path d="M147.894 354.674C147.894 355.331 147.733 355.907 147.411 356.402C147.094 356.891 146.631 357.285 146.022 357.582C145.412 357.875 144.68 358.055 143.826 358.122V360.016H142.09V358.101C141.26 358.005 140.53 357.786 139.902 357.446C139.278 357.105 138.793 356.666 138.447 356.128C138.106 355.59 137.936 354.988 137.936 354.321H140.096C140.096 354.748 140.206 355.11 140.427 355.408C140.653 355.706 140.979 355.931 141.406 356.085C141.838 356.238 142.362 356.315 142.976 356.315C143.586 356.315 144.109 356.248 144.546 356.114C144.987 355.979 145.323 355.785 145.554 355.53C145.784 355.271 145.899 354.964 145.899 354.609C145.899 354.316 145.832 354.071 145.698 353.874C145.563 353.678 145.345 353.514 145.042 353.385C144.745 353.255 144.339 353.147 143.826 353.061V354.458H142.09V352.852C141.183 352.727 140.442 352.528 139.866 352.254C139.29 351.976 138.862 351.616 138.584 351.174C138.306 350.733 138.166 350.193 138.166 349.554C138.166 348.921 138.325 348.359 138.642 347.87C138.963 347.38 139.417 346.986 140.002 346.689C140.593 346.386 141.289 346.199 142.09 346.127V344.219H143.826V346.156C144.603 346.257 145.28 346.473 145.856 346.804C146.437 347.135 146.883 347.562 147.195 348.086C147.512 348.604 147.67 349.192 147.67 349.85H145.51C145.51 349.437 145.407 349.089 145.201 348.806C144.994 348.518 144.69 348.299 144.286 348.15C143.888 348.002 143.403 347.927 142.832 347.927C142.28 347.927 141.802 347.992 141.399 348.122C141.001 348.251 140.694 348.438 140.478 348.683C140.266 348.928 140.161 349.218 140.161 349.554C140.161 349.838 140.226 350.075 140.355 350.267C140.485 350.454 140.689 350.61 140.967 350.735C141.25 350.855 141.625 350.949 142.09 351.016V349.634H143.826V351.218C144.757 351.357 145.52 351.573 146.115 351.866C146.715 352.158 147.162 352.538 147.454 353.003C147.747 353.464 147.894 354.021 147.894 354.674Z" fill="white"/>
<defs>
<filter id="filter0_b_101_339" x="88" y="131" width="360" height="110" filterUnits="userSpaceOnUse" color-interpolation-filters="sRGB">
<feFlood flood-opacity="0" result="BackgroundImageFix"/>
<feGaussianBlur in="BackgroundImageFix" stdDeviation="8.5"/>
<feComposite in2="SourceAlpha" operator="in" result="effect1_backgroundBlur_101_339"/>
<feBlend mode="normal" in="SourceGraphic" in2="effect1_backgroundBlur_101_339" result="shape"/>
</filter>
<filter id="filter1_b_101_339" x="88" y="214" width="360" height="110" filterUnits="userSpaceOnUse" color-interpolation-filters="sRGB">
<feFlood flood-opacity="0" result="BackgroundImageFix"/>
<feGaussianBlur in="BackgroundImageFix" stdDeviation="8.5"/>
<feComposite in2="SourceAlpha" operator="in" result="effect1_backgroundBlur_101_339"/>
<feBlend mode="normal" in="SourceGraphic" in2="effect1_backgroundBlur_101_339" result="shape"/>
</filter>
<filter id="filter2_b_101_339" x="88" y="297" width="360" height="110" filterUnits="userSpaceOnUse" color-interpolation-filters="sRGB">
<feFlood flood-opacity="0" result="BackgroundImageFix"/>
<feGaussianBlur in="BackgroundImageFix" stdDeviation="8.5"/>
<feComposite in2="SourceAlpha" operator="in" result="effect1_backgroundBlur_101_339"/>
<feBlend mode="normal" in="SourceGraphic" in2="effect1_backgroundBlur_101_339" result="shape"/>
</filter>
<radialGradient id="paint0_radial_101_339" cx="0" cy="0" r="1" gradientUnits="userSpaceOnUse" gradientTransform="translate(267.5 325.5) rotate(90) scale(325.5 267.5)">
<stop stop-color="#D9D9D9"/>
<stop offset="0.0001" stop-color="#4E9FAD"/>
<stop offset="1" stop-color="#113C20"/>
</radialGradient>
<clipPath id="clip0_101_339">
<rect width="40" height="40" fill="white" transform="translate(121 252)"/>
</clipPath>
<clipPath id="clip1_101_339">
<rect width="40" height="40" fill="white" transform="translate(123 332)"/>
</clipPath>
</defs>
</svg>
