<svg width="535" height="651" viewBox="0 0 535 651" fill="none" xmlns="http://www.w3.org/2000/svg">
<mask id="mask0_101_414" style="mask-type:alpha" maskUnits="userSpaceOnUse" x="0" y="0" width="535" height="651">
<rect width="535" height="651" rx="267.5" fill="#D9D9D9"/>
</mask>
<g mask="url(#mask0_101_414)">
<rect width="535" height="651" rx="267.5" fill="url(#paint0_radial_101_414)"/>
</g>
<g filter="url(#filter0_b_101_414)">
<path d="M105 164C105 159.582 108.582 156 113 156H423C427.418 156 431 159.582 431 164V224C431 228.418 427.418 232 423 232H113C108.582 232 105 228.418 105 224V164Z" fill="white" fill-opacity="0.3"/>
</g>
<g filter="url(#filter1_b_101_414)">
<rect x="105" y="281" width="326" height="76" rx="8" fill="white" fill-opacity="0.3"/>
</g>
<rect x="95.5" y="145.5" width="346" height="325" rx="11.5" stroke="white"/>
<rect x="105" y="386" width="328" height="67" rx="8" fill="white"/>
<path d="M240.61 425.173C239.414 425.173 238.363 424.906 237.456 424.374C236.554 423.841 235.858 423.114 235.368 422.192C234.878 421.27 234.634 420.241 234.634 419.103C234.634 417.951 234.881 416.914 235.375 415.993C235.874 415.071 236.575 414.346 237.478 413.818C238.385 413.29 239.431 413.026 240.617 413.026C241.687 413.026 242.642 413.238 243.482 413.66C244.327 414.082 244.997 414.658 245.491 415.388C245.99 416.113 246.281 416.919 246.362 417.807H244.202C244.121 417.236 243.922 416.732 243.605 416.295C243.288 415.854 242.87 415.51 242.352 415.266C241.834 415.021 241.243 414.898 240.581 414.898C239.794 414.898 239.1 415.074 238.5 415.424C237.905 415.77 237.444 416.262 237.118 416.9C236.791 417.534 236.628 418.266 236.628 419.096C236.628 419.902 236.786 420.625 237.103 421.263C237.425 421.897 237.883 422.396 238.478 422.761C239.074 423.121 239.774 423.301 240.581 423.301C241.243 423.301 241.831 423.183 242.345 422.948C242.863 422.708 243.281 422.37 243.598 421.933C243.919 421.496 244.121 420.982 244.202 420.392H246.362C246.281 421.285 245.99 422.096 245.491 422.826C244.992 423.55 244.32 424.124 243.475 424.546C242.635 424.964 241.68 425.173 240.61 425.173ZM251.85 425.166C251.025 425.166 250.29 424.988 249.647 424.633C249.009 424.278 248.512 423.781 248.157 423.142C247.801 422.504 247.624 421.772 247.624 420.946C247.624 420.116 247.801 419.382 248.157 418.743C248.512 418.105 249.009 417.608 249.647 417.253C250.285 416.898 251.02 416.72 251.85 416.72C252.676 416.72 253.408 416.898 254.046 417.253C254.685 417.608 255.181 418.107 255.537 418.75C255.892 419.389 256.069 420.121 256.069 420.946C256.069 421.772 255.892 422.504 255.537 423.142C255.181 423.781 254.685 424.278 254.046 424.633C253.408 424.988 252.676 425.166 251.85 425.166ZM251.85 423.366C252.311 423.366 252.714 423.267 253.06 423.07C253.41 422.869 253.679 422.586 253.866 422.221C254.058 421.856 254.154 421.431 254.154 420.946C254.154 420.462 254.058 420.037 253.866 419.672C253.679 419.302 253.41 419.019 253.06 418.822C252.714 418.621 252.311 418.52 251.85 418.52C251.389 418.52 250.984 418.621 250.633 418.822C250.283 419.019 250.012 419.302 249.82 419.672C249.633 420.037 249.539 420.462 249.539 420.946C249.539 421.431 249.633 421.856 249.82 422.221C250.012 422.586 250.283 422.869 250.633 423.07C250.984 423.267 251.389 423.366 251.85 423.366ZM257.503 425V416.907H259.404V418.146C259.538 417.843 259.735 417.586 259.994 417.375C260.258 417.164 260.57 417.006 260.93 416.9C261.295 416.79 261.696 416.734 262.133 416.734C262.848 416.734 263.467 416.869 263.99 417.138C264.518 417.406 264.921 417.79 265.2 418.29C265.478 418.789 265.617 419.379 265.617 420.061V425H263.717V420.558C263.717 420.135 263.64 419.773 263.486 419.47C263.337 419.168 263.112 418.938 262.809 418.779C262.507 418.621 262.137 418.542 261.701 418.542C261.293 418.542 260.921 418.616 260.585 418.765C260.253 418.914 259.982 419.149 259.771 419.47C259.56 419.787 259.437 420.19 259.404 420.68V425H257.503ZM271.346 423.2L273.362 416.9H275.522L272.642 425H269.748L266.875 416.9H269.035L271.044 423.2H271.346ZM285.085 421.508H278.439C278.501 421.926 278.643 422.286 278.864 422.588C279.085 422.886 279.37 423.114 279.721 423.272C280.071 423.43 280.472 423.51 280.923 423.51C281.422 423.51 281.842 423.409 282.183 423.207C282.524 423.001 282.771 422.708 282.925 422.329H285.013C284.816 422.938 284.525 423.457 284.141 423.884C283.762 424.306 283.301 424.626 282.759 424.842C282.217 425.058 281.612 425.166 280.945 425.166C280.076 425.166 279.315 424.993 278.662 424.647C278.009 424.297 277.503 423.807 277.143 423.178C276.788 422.545 276.61 421.82 276.61 421.004C276.61 420.159 276.797 419.413 277.172 418.765C277.546 418.112 278.06 417.608 278.713 417.253C279.37 416.898 280.107 416.72 280.923 416.72C281.758 416.72 282.49 416.905 283.119 417.274C283.748 417.644 284.233 418.155 284.573 418.808C284.914 419.456 285.085 420.19 285.085 421.011V421.508ZM283.184 420.032C283.088 419.691 282.937 419.396 282.73 419.146C282.524 418.897 282.267 418.705 281.96 418.57C281.653 418.436 281.302 418.369 280.909 418.369C280.515 418.369 280.157 418.436 279.836 418.57C279.519 418.7 279.248 418.89 279.022 419.139C278.801 419.389 278.638 419.686 278.533 420.032H283.184ZM288.544 425V418.7H286.507V416.9H290.445V418.88C290.551 418.458 290.736 418.1 291 417.807C291.264 417.51 291.592 417.284 291.986 417.13C292.384 416.977 292.838 416.9 293.347 416.9H294.7V418.772H293.001C292.531 418.772 292.108 418.882 291.734 419.103C291.36 419.319 291.057 419.653 290.827 420.104C290.596 420.55 290.469 421.102 290.445 421.76V425H288.544ZM300.89 425H298.989V418.7H295.77V416.9H298.989V412.45H300.89V416.9H304.108V418.7H300.89V425Z" fill="black"/>
<path d="M95.5 368.5H441" stroke="white"/>
<path d="M187.857 300.445V306.803C187.857 307.71 188.006 308.373 188.302 308.792C188.744 309.398 189.366 309.701 190.168 309.701C190.975 309.701 191.599 309.398 192.041 308.792C192.337 308.386 192.485 307.723 192.485 306.803V300.445H194.078V307.24C194.078 308.352 193.732 309.268 193.039 309.988C192.26 310.79 191.303 311.191 190.168 311.191C189.033 311.191 188.078 310.79 187.304 309.988C186.611 309.268 186.265 308.352 186.265 307.24V300.445H187.857ZM202.582 302.018L201.29 302.783C201.049 302.364 200.818 302.09 200.6 301.963C200.372 301.817 200.078 301.744 199.718 301.744C199.276 301.744 198.909 301.869 198.617 302.12C198.326 302.366 198.18 302.676 198.18 303.05C198.18 303.565 198.562 303.979 199.328 304.294L200.381 304.725C201.238 305.071 201.864 305.495 202.261 305.996C202.657 306.493 202.855 307.104 202.855 307.828C202.855 308.799 202.532 309.601 201.885 310.234C201.233 310.872 200.424 311.191 199.458 311.191C198.542 311.191 197.785 310.92 197.188 310.378C196.601 309.836 196.234 309.072 196.088 308.088L197.701 307.732C197.774 308.352 197.902 308.781 198.084 309.018C198.412 309.473 198.891 309.701 199.52 309.701C200.016 309.701 200.429 309.535 200.757 309.202C201.085 308.869 201.249 308.448 201.249 307.938C201.249 307.732 201.219 307.546 201.16 307.377C201.105 307.204 201.017 307.047 200.894 306.905C200.775 306.759 200.62 306.625 200.429 306.502C200.237 306.374 200.009 306.254 199.745 306.14L198.727 305.716C197.282 305.105 196.56 304.212 196.56 303.036C196.56 302.243 196.863 301.58 197.469 301.047C198.075 300.509 198.829 300.24 199.731 300.24C200.948 300.24 201.898 300.833 202.582 302.018ZM204.776 311V300.445H206.991C208.053 300.445 208.892 300.55 209.507 300.76C210.168 300.965 210.767 301.313 211.305 301.806C212.394 302.799 212.938 304.105 212.938 305.723C212.938 307.345 212.371 308.658 211.236 309.66C210.667 310.161 210.07 310.51 209.445 310.706C208.862 310.902 208.035 311 206.964 311H204.776ZM206.369 309.503H207.087C207.802 309.503 208.397 309.428 208.871 309.277C209.345 309.118 209.773 308.865 210.156 308.519C210.94 307.803 211.332 306.871 211.332 305.723C211.332 304.565 210.945 303.626 210.17 302.906C209.473 302.264 208.445 301.942 207.087 301.942H206.369V309.503Z" fill="white"/>
<path d="M191.089 177.942H186.857V180.479H190.966V181.976H186.857V185.503H191.089V187H185.265V176.445H191.089V177.942ZM196.093 177.942V187H194.5V177.942H192.073V176.445H198.513V177.942H196.093ZM201.527 180.574H206.08V176.445H207.673V187H206.08V182.071H201.527V187H199.935V176.445H201.527V180.574Z" fill="white"/>
<path d="M194.043 328.349H196.376V330.221H194.043V333H192.114V330.221H185.936V328.126L190.76 321.235H194.043V328.349ZM191.782 322.848L187.93 328.349H192.114V322.848H191.782ZM206.348 328.349H208.681V330.221H206.348V333H204.418V330.221H198.241V328.126L203.065 321.235H206.348V328.349ZM204.087 322.848L200.235 328.349H204.418V322.848H204.087ZM210.545 333V329.71L211.87 329.414C213.704 329.006 215.069 328.454 215.967 327.758C216.865 327.058 217.313 326.198 217.313 325.181C217.313 324.701 217.222 324.293 217.04 323.957C216.857 323.616 216.591 323.357 216.241 323.179C215.895 323.002 215.475 322.913 214.981 322.913C214.496 322.913 214.083 322.997 213.742 323.165C213.406 323.328 213.149 323.568 212.972 323.885C212.794 324.202 212.705 324.586 212.705 325.037H210.545C210.545 324.211 210.723 323.498 211.078 322.898C211.433 322.298 211.945 321.84 212.612 321.523C213.279 321.202 214.071 321.041 214.988 321.041C215.885 321.041 216.658 321.199 217.306 321.516C217.954 321.833 218.449 322.291 218.789 322.891C219.135 323.491 219.308 324.206 219.308 325.037C219.308 325.944 219.087 326.77 218.645 327.514C218.209 328.253 217.565 328.886 216.716 329.414C215.871 329.938 214.846 330.338 213.641 330.617L212.511 330.876V331.2L213.893 331.128H219.459V333H210.545ZM228.063 327.067C228.788 327.317 229.347 327.682 229.741 328.162C230.134 328.637 230.331 329.196 230.331 329.839C230.331 330.463 230.142 331.03 229.762 331.538C229.383 332.047 228.85 332.448 228.164 332.741C227.482 333.029 226.707 333.173 225.838 333.173C224.97 333.173 224.192 333.029 223.506 332.741C222.824 332.448 222.291 332.05 221.907 331.546C221.528 331.037 221.338 330.468 221.338 329.839C221.338 329.196 221.533 328.637 221.922 328.162C222.31 327.686 222.865 327.324 223.585 327.074C223.124 326.916 222.73 326.705 222.404 326.441C222.082 326.177 221.835 325.87 221.662 325.519C221.494 325.164 221.41 324.78 221.41 324.367C221.41 323.743 221.595 323.179 221.965 322.675C222.334 322.166 222.855 321.766 223.527 321.473C224.199 321.18 224.972 321.034 225.846 321.034C226.695 321.034 227.456 321.173 228.128 321.451C228.8 321.725 229.323 322.109 229.698 322.603C230.077 323.098 230.266 323.659 230.266 324.288C230.266 324.706 230.18 325.094 230.007 325.454C229.834 325.814 229.582 326.131 229.251 326.405C228.92 326.678 228.524 326.899 228.063 327.067ZM225.838 322.906C225.344 322.906 224.912 322.968 224.542 323.093C224.178 323.218 223.894 323.395 223.693 323.626C223.496 323.856 223.398 324.13 223.398 324.446C223.398 324.754 223.491 325.032 223.678 325.282C223.87 325.526 224.149 325.721 224.514 325.865C224.878 326.004 225.315 326.074 225.824 326.074C226.318 326.074 226.75 326.006 227.12 325.872C227.49 325.738 227.773 325.548 227.97 325.303C228.171 325.054 228.272 324.768 228.272 324.446C228.272 324.13 228.171 323.856 227.97 323.626C227.773 323.39 227.492 323.213 227.127 323.093C226.762 322.968 226.333 322.906 225.838 322.906ZM225.838 331.301C226.342 331.301 226.784 331.236 227.163 331.106C227.542 330.972 227.833 330.782 228.034 330.538C228.241 330.288 228.344 330 228.344 329.674C228.344 329.347 228.241 329.062 228.034 328.817C227.833 328.572 227.542 328.385 227.163 328.255C226.789 328.121 226.347 328.054 225.838 328.054C225.33 328.054 224.886 328.121 224.506 328.255C224.132 328.385 223.842 328.572 223.635 328.817C223.429 329.062 223.326 329.347 223.326 329.674C223.326 330 223.429 330.288 223.635 330.538C223.842 330.782 224.132 330.972 224.506 331.106C224.886 331.236 225.33 331.301 225.838 331.301ZM240.309 328.349H242.642V330.221H240.309V333H238.379V330.221H232.202V328.126L237.026 321.235H240.309V328.349ZM238.048 322.848L234.196 328.349H238.379V322.848H238.048ZM246.674 326.858H244.506L247.206 321.235H250.734V333H248.805V322.848H248.481L246.674 326.858ZM256.539 333H254.638V330.084H256.539V333ZM263.48 333.173C262.51 333.173 261.677 333.026 260.981 332.734C260.29 332.441 259.762 332.018 259.397 331.466C259.032 330.914 258.85 330.252 258.85 329.479H261.01C261.01 330.07 261.216 330.521 261.629 330.833C262.047 331.145 262.647 331.301 263.429 331.301C263.972 331.301 264.437 331.229 264.826 331.085C265.22 330.936 265.517 330.727 265.719 330.458C265.925 330.19 266.028 329.875 266.028 329.515C266.028 329.146 265.925 328.819 265.719 328.536C265.512 328.248 265.191 328.022 264.754 327.859C264.317 327.691 263.768 327.607 263.105 327.607H259.858V321.235H267.26V323.107H261.788V325.807H263.357C264.356 325.807 265.203 325.954 265.899 326.246C266.6 326.539 267.128 326.962 267.483 327.514C267.843 328.066 268.023 328.723 268.023 329.486C268.023 330.211 267.86 330.85 267.533 331.402C267.207 331.954 266.703 332.388 266.021 332.705C265.344 333.017 264.497 333.173 263.48 333.173ZM269.889 333V329.71L271.214 329.414C273.048 329.006 274.413 328.454 275.311 327.758C276.208 327.058 276.657 326.198 276.657 325.181C276.657 324.701 276.566 324.293 276.384 323.957C276.201 323.616 275.935 323.357 275.584 323.179C275.239 323.002 274.819 322.913 274.324 322.913C273.84 322.913 273.427 322.997 273.086 323.165C272.75 323.328 272.493 323.568 272.316 323.885C272.138 324.202 272.049 324.586 272.049 325.037H269.889C269.889 324.211 270.067 323.498 270.422 322.898C270.777 322.298 271.288 321.84 271.956 321.523C272.623 321.202 273.415 321.041 274.332 321.041C275.229 321.041 276.002 321.199 276.65 321.516C277.298 321.833 277.792 322.291 278.133 322.891C278.479 323.491 278.652 324.206 278.652 325.037C278.652 325.944 278.431 326.77 277.989 327.514C277.552 328.253 276.909 328.886 276.06 329.414C275.215 329.938 274.19 330.338 272.985 330.617L271.855 330.876V331.2L273.237 331.128H278.803V333H269.889Z" fill="white"/>
<path d="M191.265 203.024C191.836 203.134 192.321 203.322 192.719 203.586C193.122 203.85 193.43 204.181 193.641 204.579C193.852 204.978 193.958 205.431 193.958 205.94C193.958 206.607 193.778 207.183 193.418 207.668C193.062 208.153 192.549 208.525 191.877 208.784C191.21 209.043 190.415 209.173 189.494 209.173C188.538 209.173 187.718 209.029 187.031 208.741C186.35 208.448 185.829 208.026 185.469 207.474C185.114 206.917 184.936 206.252 184.936 205.479H187.096C187.096 206.074 187.298 206.528 187.701 206.84C188.104 207.147 188.69 207.301 189.458 207.301C189.976 207.301 190.422 207.238 190.797 207.114C191.176 206.989 191.466 206.809 191.668 206.574C191.87 206.338 191.97 206.058 191.97 205.731C191.97 205.395 191.872 205.093 191.675 204.824C191.483 204.555 191.193 204.344 190.804 204.19C190.415 204.032 189.942 203.953 189.386 203.953H188.226V202.081H189.386C189.88 202.081 190.3 202.011 190.646 201.872C190.991 201.728 191.25 201.534 191.423 201.289C191.596 201.044 191.682 200.766 191.682 200.454C191.682 200.137 191.584 199.863 191.387 199.633C191.19 199.402 190.907 199.225 190.538 199.1C190.173 198.975 189.741 198.913 189.242 198.913C188.541 198.913 188.008 199.057 187.643 199.345C187.278 199.628 187.096 200.043 187.096 200.59H184.936C184.936 199.846 185.106 199.21 185.447 198.682C185.788 198.15 186.282 197.744 186.93 197.466C187.583 197.182 188.366 197.041 189.278 197.041C190.185 197.041 190.97 197.17 191.632 197.43C192.294 197.684 192.801 198.054 193.151 198.538C193.506 199.018 193.684 199.587 193.684 200.245C193.684 200.715 193.588 201.14 193.396 201.519C193.204 201.894 192.926 202.21 192.561 202.47C192.201 202.729 191.769 202.914 191.265 203.024ZM203.942 204.349H206.274V206.221H203.942V209H202.012V206.221H195.834V204.126L200.658 197.235H203.942V204.349ZM201.681 198.848L197.829 204.349H202.012V198.848H201.681ZM216.246 204.349H218.579V206.221H216.246V209H214.317V206.221H208.139V204.126L212.963 197.235H216.246V204.349ZM213.986 198.848L210.134 204.349H214.317V198.848H213.986ZM222.791 209H220.89V206.084H222.791V209ZM225.102 209V205.71L226.427 205.414C228.26 205.006 229.626 204.454 230.524 203.758C231.421 203.058 231.87 202.198 231.87 201.181C231.87 200.701 231.779 200.293 231.596 199.957C231.414 199.616 231.148 199.357 230.797 199.179C230.452 199.002 230.032 198.913 229.537 198.913C229.052 198.913 228.64 198.997 228.299 199.165C227.963 199.328 227.706 199.568 227.528 199.885C227.351 200.202 227.262 200.586 227.262 201.037H225.102C225.102 200.211 225.28 199.498 225.635 198.898C225.99 198.298 226.501 197.84 227.168 197.523C227.836 197.202 228.628 197.041 229.544 197.041C230.442 197.041 231.215 197.199 231.863 197.516C232.511 197.833 233.005 198.291 233.346 198.891C233.692 199.491 233.864 200.206 233.864 201.037C233.864 201.944 233.644 202.77 233.202 203.514C232.765 204.253 232.122 204.886 231.272 205.414C230.428 205.938 229.403 206.338 228.198 206.617L227.068 206.876V207.2L228.45 207.128H234.016V209H225.102ZM242.224 203.024C242.795 203.134 243.28 203.322 243.678 203.586C244.081 203.85 244.389 204.181 244.6 204.579C244.811 204.978 244.917 205.431 244.917 205.94C244.917 206.607 244.737 207.183 244.377 207.668C244.021 208.153 243.508 208.525 242.836 208.784C242.169 209.043 241.374 209.173 240.453 209.173C239.497 209.173 238.677 209.029 237.99 208.741C237.309 208.448 236.788 208.026 236.428 207.474C236.073 206.917 235.895 206.252 235.895 205.479H238.055C238.055 206.074 238.257 206.528 238.66 206.84C239.063 207.147 239.649 207.301 240.417 207.301C240.935 207.301 241.381 207.238 241.756 207.114C242.135 206.989 242.425 206.809 242.627 206.574C242.829 206.338 242.929 206.058 242.929 205.731C242.929 205.395 242.831 205.093 242.634 204.824C242.442 204.555 242.152 204.344 241.763 204.19C241.374 204.032 240.901 203.953 240.345 203.953H239.185V202.081H240.345C240.839 202.081 241.259 202.011 241.605 201.872C241.95 201.728 242.209 201.534 242.382 201.289C242.555 201.044 242.641 200.766 242.641 200.454C242.641 200.137 242.543 199.863 242.346 199.633C242.149 199.402 241.866 199.225 241.497 199.1C241.132 198.975 240.7 198.913 240.201 198.913C239.5 198.913 238.967 199.057 238.602 199.345C238.237 199.628 238.055 200.043 238.055 200.59H235.895C235.895 199.846 236.065 199.21 236.406 198.682C236.747 198.15 237.241 197.744 237.889 197.466C238.542 197.182 239.325 197.041 240.237 197.041C241.144 197.041 241.929 197.17 242.591 197.43C243.253 197.684 243.76 198.054 244.11 198.538C244.465 199.018 244.643 199.587 244.643 200.245C244.643 200.715 244.547 201.14 244.355 201.519C244.163 201.894 243.885 202.21 243.52 202.47C243.16 202.729 242.728 202.914 242.224 203.024Z" fill="white"/>
<path d="M184.5 217H263" stroke="white"/>
<path d="M247.5 194.5V211.5" stroke="white"/>
<g clip-path="url(#clip0_101_414)">
<path d="M142 214C153.046 214 162 205.046 162 194C162 182.954 153.046 174 142 174C130.954 174 122 182.954 122 194C122 205.046 130.954 214 142 214Z" fill="#627EEA"/>
<path d="M142.623 179V190.087L151.994 194.275L142.623 179Z" fill="white" fill-opacity="0.602"/>
<path d="M142.622 179L133.25 194.275L142.622 190.087V179Z" fill="white"/>
<path d="M142.623 201.461V208.994L152 196.021L142.623 201.461Z" fill="white" fill-opacity="0.602"/>
<path d="M142.622 208.994V201.459L133.25 196.021L142.622 208.994Z" fill="white"/>
<path d="M142.623 199.716L151.994 194.275L142.623 190.09V199.716Z" fill="white" fill-opacity="0.2"/>
<path d="M133.25 194.275L142.622 199.716V190.09L133.25 194.275Z" fill="white" fill-opacity="0.602"/>
</g>
<g clip-path="url(#clip1_101_414)">
<path d="M144 340C155.046 340 164 331.046 164 320C164 308.954 155.046 300 144 300C132.954 300 124 308.954 124 320C124 331.046 132.954 340 144 340Z" fill="#EA62E5"/>
</g>
<path d="M148.894 322.674C148.894 323.331 148.733 323.907 148.411 324.402C148.094 324.891 147.631 325.285 147.022 325.582C146.412 325.875 145.68 326.055 144.826 326.122V328.016H143.09V326.101C142.26 326.005 141.53 325.786 140.902 325.446C140.278 325.105 139.793 324.666 139.447 324.128C139.106 323.59 138.936 322.988 138.936 322.321H141.096C141.096 322.748 141.206 323.11 141.427 323.408C141.653 323.706 141.979 323.931 142.406 324.085C142.838 324.238 143.362 324.315 143.976 324.315C144.586 324.315 145.109 324.248 145.546 324.114C145.987 323.979 146.323 323.785 146.554 323.53C146.784 323.271 146.899 322.964 146.899 322.609C146.899 322.316 146.832 322.071 146.698 321.874C146.563 321.678 146.345 321.514 146.042 321.385C145.745 321.255 145.339 321.147 144.826 321.061V322.458H143.09V320.852C142.183 320.727 141.442 320.528 140.866 320.254C140.29 319.976 139.862 319.616 139.584 319.174C139.306 318.733 139.166 318.193 139.166 317.554C139.166 316.921 139.325 316.359 139.642 315.87C139.963 315.38 140.417 314.986 141.002 314.689C141.593 314.386 142.289 314.199 143.09 314.127V312.219H144.826V314.156C145.603 314.257 146.28 314.473 146.856 314.804C147.437 315.135 147.883 315.562 148.195 316.086C148.512 316.604 148.67 317.192 148.67 317.85H146.51C146.51 317.437 146.407 317.089 146.201 316.806C145.994 316.518 145.69 316.299 145.286 316.15C144.888 316.002 144.403 315.927 143.832 315.927C143.28 315.927 142.802 315.992 142.399 316.122C142.001 316.251 141.694 316.438 141.478 316.683C141.266 316.928 141.161 317.218 141.161 317.554C141.161 317.838 141.226 318.075 141.355 318.267C141.485 318.454 141.689 318.61 141.967 318.735C142.25 318.855 142.625 318.949 143.09 319.016V317.634H144.826V319.218C145.757 319.357 146.52 319.573 147.115 319.866C147.715 320.158 148.162 320.538 148.454 321.003C148.747 321.464 148.894 322.021 148.894 322.674Z" fill="white"/>
<path d="M142 236L142 276" stroke="white" stroke-width="2" stroke-linejoin="round" stroke-dasharray="4 4"/>
<defs>
<filter id="filter0_b_101_414" x="88" y="139" width="360" height="110" filterUnits="userSpaceOnUse" color-interpolation-filters="sRGB">
<feFlood flood-opacity="0" result="BackgroundImageFix"/>
<feGaussianBlur in="BackgroundImageFix" stdDeviation="8.5"/>
<feComposite in2="SourceAlpha" operator="in" result="effect1_backgroundBlur_101_414"/>
<feBlend mode="normal" in="SourceGraphic" in2="effect1_backgroundBlur_101_414" result="shape"/>
</filter>
<filter id="filter1_b_101_414" x="88" y="264" width="360" height="110" filterUnits="userSpaceOnUse" color-interpolation-filters="sRGB">
<feFlood flood-opacity="0" result="BackgroundImageFix"/>
<feGaussianBlur in="BackgroundImageFix" stdDeviation="8.5"/>
<feComposite in2="SourceAlpha" operator="in" result="effect1_backgroundBlur_101_414"/>
<feBlend mode="normal" in="SourceGraphic" in2="effect1_backgroundBlur_101_414" result="shape"/>
</filter>
<radialGradient id="paint0_radial_101_414" cx="0" cy="0" r="1" gradientUnits="userSpaceOnUse" gradientTransform="translate(267.5 325.5) rotate(90) scale(325.5 267.5)">
<stop stop-color="#D9D9D9"/>
<stop offset="0.0001" stop-color="#4E9FAD"/>
<stop offset="1" stop-color="#081C24"/>
</radialGradient>
<clipPath id="clip0_101_414">
<rect width="40" height="40" fill="white" transform="translate(122 174)"/>
</clipPath>
<clipPath id="clip1_101_414">
<rect width="40" height="40" fill="white" transform="translate(124 300)"/>
</clipPath>
</defs>
</svg>
